<svg xmlns="http://www.w3.org/2000/svg" width="80" height="80" viewBox="0 0 80 80">
    <defs>
        <clipPath id="pwrg0byn5a">
            <path data-name="사각형 933" transform="translate(-.001 .001)" style="fill:none" d="M0 0h80v80H0z"/>
        </clipPath>
        <clipPath id="ue059wr57b">
            <path data-name="패스 27" d="M29.424 65.214a6.461 6.461 0 0 1 6.445-6.458h15.006a6.459 6.459 0 0 1 6.442 6.458v10.249h-4.668v-9.529h-2.115v9.529H36.209v-9.529h-2.114v9.529h-4.67zm22.638-18.695a8.43 8.43 0 0 0-.036-.715h14.648a6.459 6.459 0 0 1 6.445 6.456v10.251H68.45v-9.53h-2.115v9.53h-7.344a8.557 8.557 0 0 0-8.116-5.873H35.87a8.56 8.56 0 0 0-8.12 5.873h-7.342v-9.53h-2.115v9.53h-4.671v-10.25a6.46 6.46 0 0 1 6.445-6.461h14.649a8.84 8.84 0 0 0-.036.714 8.691 8.691 0 1 0 17.381 0m-15.267 0a6.576 6.576 0 1 1 6.576 6.588 6.592 6.592 0 0 1-6.57-6.583m-1.722-2.592v-.242H20.067a8.568 8.568 0 0 0-8.56 8.577v11.31a1.059 1.059 0 0 0 1.059 1.06h14.772c-.013.194-.029.387-.029.583v11.308a1.055 1.055 0 0 0 1.057 1.058H58.374a1.06 1.06 0 0 0 1.058-1.06V65.214c0-.2-.017-.39-.03-.584h14.774a1.061 1.061 0 0 0 1.058-1.058V52.26a8.571 8.571 0 0 0-8.56-8.577H51.669v.24a8.688 8.688 0 0 0-16.6 0M20.994 33.567a6.576 6.576 0 1 1 6.577 6.587 6.594 6.594 0 0 1-6.577-6.587m-2.114 0a8.69 8.69 0 1 0 8.691-8.71 8.7 8.7 0 0 0-8.691 8.71m33.716 0a6.576 6.576 0 1 1 6.577 6.587 6.592 6.592 0 0 1-6.573-6.587m-2.115 0a8.691 8.691 0 1 0 8.691-8.71 8.7 8.7 0 0 0-8.691 8.71m-8.171-21.712v1.485h-.8a2.413 2.413 0 0 0-2.414 2.417v2.262a2.417 2.417 0 0 0 2.413 2.417h3.726a.3.3 0 0 1 .293.3v2.262a.3.3 0 0 1-.295.3h-3.728a.3.3 0 0 1-.3-.3 1.057 1.057 0 1 0-2.114 0 2.415 2.415 0 0 0 2.412 2.416h.8V26.9h2.116v-1.489h.805a2.413 2.413 0 0 0 2.41-2.416v-2.263a2.413 2.413 0 0 0-2.41-2.416h-3.719a.3.3 0 0 1-.3-.3v-2.259a.3.3 0 0 1 .3-.3h3.725a.3.3 0 0 1 .294.3 1.058 1.058 0 1 0 2.116 0 2.414 2.414 0 0 0-2.41-2.416h-.805v-1.486zm-8.556 7.52a9.613 9.613 0 1 1 9.613 9.632 9.635 9.635 0 0 1-9.613-9.632m-2.114 0A11.728 11.728 0 1 0 43.37 7.625a11.739 11.739 0 0 0-11.727 11.75" transform="translate(-11.507 -7.625)"/>
        </clipPath>
    </defs>
    <g data-name="그룹 5967">
        <g data-name="그룹 5966" style="clip-path:url(#pwrg0byn5a)" transform="translate(.001 -.001)">
            <path data-name="패스 24" d="M62.353 20.61a10.245 10.245 0 1 1-10.244-10.245A10.245 10.245 0 0 1 62.353 20.61" transform="translate(-12.376 -3.185)" style="fill:#03dc80"/>
            <path data-name="패스 25" d="M88.149 19.553a3.771 3.771 0 1 1-3.771-3.771 3.771 3.771 0 0 1 3.771 3.771" transform="translate(-14.041 -.474)" style="stroke:#000;stroke-width:2px;fill:#03dc80"/>
            <path data-name="패스 26" d="M22.588 27.615a3.77 3.77 0 1 1-3.771-3.771 3.771 3.771 0 0 1 3.771 3.771" transform="translate(-2.945 -15.15)" style="stroke:#000;stroke-width:2px;fill:#03dc80"/>
        </g>
    </g>
    <g data-name="그룹 5969">
        <g data-name="그룹 5968" style="clip-path:url(#ue059wr57b)" transform="translate(8.138 5.336)">
            <path data-name="사각형 934" d="M0 0h63.728v69.958H0z"/>
        </g>
    </g>
</svg>
