<svg xmlns="http://www.w3.org/2000/svg" width="80.002" height="80.002" viewBox="0 0 80.002 80.002">
    <defs>
        <clipPath id="19a3h412da">
            <path data-name="사각형 930" style="fill:none" d="M0 0h80.002v80.002H0z"/>
        </clipPath>
    </defs>
    <g data-name="그룹 5963" style="clip-path:url(#19a3h412da)">
        <ellipse data-name="타원 1" cx="8.036" cy="7.634" rx="8.036" ry="7.634" transform="translate(31.965 31.965)" style="fill:#03dc80"/>
        <path data-name="패스 19" d="M40.001 31.575a8.095 8.095 0 1 0 8.1 8.094 8.094 8.094 0 0 0-8.1-8.094m0 14.064a5.969 5.969 0 1 1 5.969-5.97 5.979 5.979 0 0 1-5.969 5.97"/>
        <path data-name="패스 20" d="M46.918 48.883H33.09a7.976 7.976 0 0 0-7.972 7.976v11.458h29.769V56.859a7.975 7.975 0 0 0-7.969-7.976m5.843 17.308h-4.124v-8.673h-2.126v8.673H33.492v-8.672h-2.125v8.672h-4.128v-9.332a5.856 5.856 0 0 1 5.849-5.849h13.83a5.856 5.856 0 0 1 5.847 5.849z"/>
        <path data-name="패스 21" d="M74.146 39.927V29.083a5.994 5.994 0 0 0-5.979-5.981h-8.828a6 6 0 0 0-5.982 5.981v10.844a5.993 5.993 0 0 0 5.982 5.981h8.831a6 6 0 0 0 5.98-5.98zm-2.126 0a3.878 3.878 0 0 1-3.853 3.855h-8.828a3.879 3.879 0 0 1-3.854-3.855V29.083a3.88 3.88 0 0 1 3.854-3.854h8.831a3.877 3.877 0 0 1 3.853 3.855v10.843zM26.639 29.083a5.993 5.993 0 0 0-5.979-5.98h-8.821a5.994 5.994 0 0 0-5.982 5.98v10.845a5.994 5.994 0 0 0 5.982 5.979h8.829a5.992 5.992 0 0 0 5.971-5.979zm-2.121 10.845a3.879 3.879 0 0 1-3.853 3.853h-8.826a3.879 3.879 0 0 1-3.856-3.853V29.083a3.879 3.879 0 0 1 3.856-3.855h8.829a3.879 3.879 0 0 1 3.853 3.855v10.845zm36.2-1.825h6.066v-2.127h-6.065zm0-5.07h6.066v-2.127h-6.065zm-47.5 0h6.065v-2.126h-6.066zm0 5.071h6.065v-2.126h-6.066zm16.212-19.04h5.257a1.062 1.062 0 0 0 1.062-1.062v-5.26a1.06 1.06 0 0 0-1.062-1.062H29.43a1.06 1.06 0 0 0-1.062 1.062v5.26a1.06 1.06 0 0 0 1.062 1.062m1.062-5.255h3.131v3.133h-3.131zm20.079.5H37.839v2.126h12.732zm0 8.759H37.839v2.126h12.732zm-21.14 4.755h5.255a1.063 1.063 0 0 0 1.064-1.062v-5.254a1.063 1.063 0 0 0-1.064-1.065h-5.255a1.062 1.062 0 0 0-1.064 1.062v5.254a1.062 1.062 0 0 0 1.064 1.062m1.062-5.254h3.13v3.129h-3.13z"/>
    </g>
</svg>
