<svg xmlns="http://www.w3.org/2000/svg" width="80" height="80" viewBox="0 0 80 80">
    <defs>
        <clipPath id="rfiri0prya">
            <path data-name="사각형 932" transform="translate(3.001 2)" style="fill:none" d="M0 0h80v80H0z"/>
        </clipPath>
    </defs>
    <g data-name="그룹 5964" transform="translate(-3.001 -2)" style="clip-path:url(#rfiri0prya)">
        <path data-name="패스 22" d="M87.394 71.194a15.457 15.457 0 1 1-15.457-15.457 15.457 15.457 0 0 1 15.457 15.457" transform="translate(-12.791 -13.471)" style="fill:#03dc80"/>
        <path data-name="사각형 931" transform="translate(14.571 33.872)" style="fill:#03dc80" d="M0 0h11.263v26.984H0z"/>
        <path data-name="패스 23" d="M63.724 60.676a7.262 7.262 0 0 0-.734-9.419 7.279 7.279 0 1 0-5.149 12.424h.007a7.264 7.264 0 0 0 4.268-1.4l4.054 4.059a1.138 1.138 0 0 0 1.608-1.61zm-2.343-.733a5.007 5.007 0 1 1 0-7.078l.806-.8-.8.8a5.005 5.005 0 0 1 0 7.078M26.721 31.931H13.544a1.14 1.14 0 0 0-1.138 1.138v27.907a1.14 1.14 0 0 0 1.138 1.135h13.177a1.142 1.142 0 0 0 1.138-1.138V33.069a1.142 1.142 0 0 0-1.138-1.138m-1.136 27.907h-10.9V34.211h10.9zm33.752-18.782a16.784 16.784 0 0 0-11.711 4.746V22.733a1.14 1.14 0 0 0-1.137-1.138H33.311a1.14 1.14 0 0 0-1.141 1.138v38.243a1.14 1.14 0 0 0 1.141 1.135h6.588v-2.272h-5.452V23.871h10.904v24.64a16.844 16.844 0 1 0 13.986-7.459m0 31.41a14.532 14.532 0 0 1-13.022-21.051l1.31-2.138a14.558 14.558 0 1 1 11.712 23.193m-5.123-58.931h10.9v23.152h2.275V12.396a1.138 1.138 0 0 0-1.137-1.137H53.077a1.139 1.139 0 0 0-1.138 1.137v24.291h2.275zM17.107 73.07h2.274v-5.167h-2.274zm-7.286 0h2.276v-5.167H9.821zm29.139 0h2.276v-5.167H38.96zm-7.284 0h2.274v-5.167h-2.274zm-7.285 0h2.279v-5.167h-2.279z"/>
    </g>
</svg>
