<svg xmlns="http://www.w3.org/2000/svg" width="80" height="80" viewBox="0 0 80 80">
    <defs>
        <clipPath id="7x4wcrks8a">
            <path data-name="사각형 935" transform="translate(0 -.011)" style="fill:none" d="M0 0h80v80H0z"/>
        </clipPath>
    </defs>
    <g data-name="그룹 5971" transform="translate(0 .011)" style="clip-path:url(#7x4wcrks8a)">
        <path data-name="패스 28" d="M16.163 38.843a3.747 3.747 0 1 1-3.747-3.743 3.747 3.747 0 0 1 3.747 3.747" transform="translate(-4.667 -9.796)" style="fill:#03dc80"/>
        <path data-name="패스 29" d="M47.163 28.843a3.747 3.747 0 1 1-3.747-3.743 3.747 3.747 0 0 1 3.747 3.747" transform="translate(-12.437 -7.29)" style="fill:#03dc80"/>
        <path data-name="패스 30" d="M67.829 52.176a3.747 3.747 0 1 1-3.747-3.747 3.747 3.747 0 0 1 3.747 3.747" transform="translate(-17.616 -13.137)" style="fill:#03dc80"/>
        <path data-name="패스 31" d="M101.163 28.843a3.747 3.747 0 1 1-3.747-3.743 3.747 3.747 0 0 1 3.747 3.747" transform="translate(-25.97 -7.29)" style="fill:#03dc80"/>
        <path data-name="패스 11956" d="M21.537 39.472h5.716v-2.249h-5.716zm0-5.115h5.715v-2.25h-5.714zm41.944-3.565v16.652a1.134 1.134 0 0 1-1.132 1.132H18.727a1.136 1.136 0 0 1-1.133-1.132V30.792a1.124 1.124 0 0 0-2.248 0v16.652a3.379 3.379 0 0 0 3.381 3.379h11.965l-7.011 20.474a1.124 1.124 0 1 0 2.126.728l7.262-21.2h6.346v20.084a1.124 1.124 0 1 0 2.248 0V50.823h6.344l7.261 21.2a1.124 1.124 0 0 0 2.127-.728l-7.012-20.472h11.966a3.38 3.38 0 0 0 3.38-3.379V30.792a1.124 1.124 0 0 0-2.248 0m-14.267-9.673h9.928v-2.247h-9.928zm-3.271 20.445a2.739 2.739 0 0 1-2.061-2.651 2.75 2.75 0 0 1 .927-2.055 2.7 2.7 0 0 1 2.441-.609l.043.008a2.83 2.83 0 0 1 .39.137c.024.01.052.016.076.027a2.633 2.633 0 0 1 .271.154 2.708 2.708 0 0 1 1.328 2.335 2.774 2.774 0 0 1-.085.68 2.74 2.74 0 0 1-3.333 1.975M7.801 31.823a2.742 2.742 0 0 1-2.063-2.651 2.676 2.676 0 0 1 .087-.68 2.732 2.732 0 0 1 1.933-1.963h.009a2.843 2.843 0 0 1 .659-.091h.056a2.656 2.656 0 0 1 .671.085 2.736 2.736 0 0 1 2.062 2.654 2.739 2.739 0 0 1-3.414 2.646m22.4-8.139a2.738 2.738 0 0 1-1.894-1.72 2.708 2.708 0 0 1-.088-.323c-.013-.058-.031-.115-.04-.175a2.645 2.645 0 0 1-.04-.437c0-.029 0-.058.006-.088a2.831 2.831 0 0 1 .08-.588 2.741 2.741 0 0 1 2.651-2.064 2.774 2.774 0 0 1 .667.083h.011a2.8 2.8 0 0 1 .442.154 2.784 2.784 0 0 1 1.617 2.5c0 .055-.007.109-.009.165a2.906 2.906 0 0 1-.076.52 2.706 2.706 0 0 1-.841 1.371 2.739 2.739 0 0 1-2.489.6m42.043-5.548-.046.181a2.739 2.739 0 1 1-2.894 4.26v-.006a2.734 2.734 0 0 1-.519-1.6 2.649 2.649 0 0 1 .018-.277 2.76 2.76 0 0 1 .067-.4 2.676 2.676 0 0 1 .14-.4c.005-.013.008-.028.014-.041a2.741 2.741 0 0 1 2.5-1.616h.181a2.766 2.766 0 0 1 .5.076zm-5.554 1.6c-.017.068-.025.137-.039.205a4.735 4.735 0 0 0-.089.581c-.013.15-.028.3-.028.448v.05a5.1 5.1 0 0 0 .05.635c.009.061.017.122.028.183a5.091 5.091 0 0 0 .154.639c.013.04.03.08.044.121.034.1.067.2.109.3l-17.01 12.262a5.066 5.066 0 0 0-.441-.344.063.063 0 0 1-.012-.009 5.032 5.032 0 0 0-.668-.38 5.652 5.652 0 0 0-.177-.081 4.861 4.861 0 0 0-.752-.266 4.955 4.955 0 0 0-1.236-.157h-.066c-.163 0-.324.013-.486.031-.059.006-.118.016-.177.025q-.2.03-.4.076c-.05.013-.1.022-.149.035a4.905 4.905 0 0 0-.518.167c-.027.01-.052.024-.079.034a3.877 3.877 0 0 0-.423.2c-.022.011-.046.019-.068.031L34.93 23.934c.027-.037.045-.083.071-.122a4.738 4.738 0 0 0 .287-.49c.043-.082.089-.161.129-.247a4.89 4.89 0 0 0 .283-.8l.006-.013c.013-.053.018-.106.03-.16a4.927 4.927 0 0 0 .106-.774c.006-.1.019-.2.019-.3a4.992 4.992 0 0 0-3.754-4.83 4.914 4.914 0 0 0-2.806.1c-.015.005-.029.006-.043.011s-.053.025-.08.035a4.977 4.977 0 0 0-3.136 3.452c-.026.106-.04.214-.06.322a4.882 4.882 0 0 0-.08.663c0 .082-.015.165-.015.247v.013a5.128 5.128 0 0 0 .036.59l-13.26 4.822-.013-.018c-.028-.043-.061-.085-.09-.127-.074-.1-.151-.208-.232-.306-.041-.05-.085-.1-.127-.148a5.4 5.4 0 0 0-.257-.268c-.041-.04-.082-.082-.126-.121a5.011 5.011 0 0 0-.412-.337c-.025-.018-.052-.034-.079-.052a5.06 5.06 0 0 0-.387-.244c-.052-.03-.1-.058-.159-.084a4.642 4.642 0 0 0-.363-.17c-.053-.023-.1-.046-.159-.067a5.065 5.065 0 0 0-.544-.176 4.889 4.889 0 0 0-1.2-.154h-.079a5.075 5.075 0 0 0-.684.056 5 5 0 0 0-.564.113H7.18a4.977 4.977 0 0 0-3.527 3.578 4.922 4.922 0 0 0-.158 1.236 4.986 4.986 0 0 0 4.973 4.989h.017a4.99 4.99 0 0 0 4.829-3.751 5.06 5.06 0 0 0 .157-1.236 4.914 4.914 0 0 0-.053-.6l13.283-4.822a4.962 4.962 0 0 0 6.54 1.67l9.339 10.6a4.935 4.935 0 0 0-.786 1.658 4.988 4.988 0 1 0 9.82 1.233 4.945 4.945 0 0 0-.4-1.917l17.039-12.28a4.919 4.919 0 0 0 2.038 1.088 4.986 4.986 0 1 0 2.467-9.662 4.843 4.843 0 0 0-.878-.139h-.021a4.927 4.927 0 0 0-.336-.012 4.984 4.984 0 0 0-4.83 3.751m-47.967-9.531a3.381 3.381 0 0 0-3.38 3.38v7.906a1.125 1.125 0 0 0 2.25 0v-7.906a1.135 1.135 0 0 1 1.13-1.13h43.623a1.135 1.135 0 0 1 1.132 1.13v4.842a1.124 1.124 0 0 0 2.247 0v-4.842a3.38 3.38 0 0 0-3.38-3.38z"/>
    </g>
</svg>
