<svg xmlns="http://www.w3.org/2000/svg" width="80.002" height="80.002" viewBox="0 0 80.002 80.002">
    <defs>
        <clipPath id="i3s428gnfa">
            <path data-name="사각형 930" style="fill:none" d="M0 0h80.002v80.002H0z"/>
        </clipPath>
    </defs>
    <g data-name="그룹 5963" style="clip-path:url(#i3s428gnfa)">
        <ellipse data-name="타원 1" cx="8.036" cy="7.634" rx="8.036" ry="7.634" transform="translate(31.965 31.965)" style="fill:transparent"/>
        <path data-name="패스 19" d="M53.377 44.815a8.095 8.095 0 1 0 8.1 8.094 8.094 8.094 0 0 0-8.1-8.094m0 14.064a5.969 5.969 0 1 1 5.969-5.97 5.979 5.979 0 0 1-5.969 5.97" transform="translate(-13.376 -13.24)" style="fill:#fff"/>
        <path data-name="패스 20" d="M57.5 69.242H43.672a7.976 7.976 0 0 0-7.972 7.976v11.458h29.769V77.218a7.975 7.975 0 0 0-7.969-7.976m5.843 17.308h-4.124v-8.673h-2.126v8.673H44.074v-8.672h-2.125v8.672h-4.128v-9.332a5.856 5.856 0 0 1 5.849-5.849H57.5a5.856 5.856 0 0 1 5.847 5.849z" transform="translate(-10.582 -20.359)" style="fill:#fff"/>
        <path data-name="패스 21" d="M76.807 44.985V34.141a5.994 5.994 0 0 0-5.979-5.981H62a6 6 0 0 0-5.982 5.981v10.844A5.993 5.993 0 0 0 62 50.966h8.831a6 6 0 0 0 5.98-5.98zm-2.126 0a3.878 3.878 0 0 1-3.853 3.855H62a3.879 3.879 0 0 1-3.854-3.855V34.141A3.88 3.88 0 0 1 62 30.287h8.831a3.877 3.877 0 0 1 3.853 3.855v10.843zM29.3 34.141a5.993 5.993 0 0 0-5.979-5.98H14.5a5.994 5.994 0 0 0-5.982 5.98v10.845a5.994 5.994 0 0 0 5.982 5.979h8.829a5.992 5.992 0 0 0 5.971-5.979zm-2.121 10.845a3.879 3.879 0 0 1-3.853 3.853H14.5a3.879 3.879 0 0 1-3.856-3.853V34.141a3.879 3.879 0 0 1 3.856-3.855h8.829a3.879 3.879 0 0 1 3.853 3.855v10.845zm36.2-1.825h6.066v-2.127H63.38zm0-5.07h6.066v-2.127H63.38zm-47.5 0h6.065v-2.126h-6.066zm0 5.071h6.065v-2.126h-6.066zm16.212-19.04h5.257a1.062 1.062 0 0 0 1.062-1.062V17.8a1.06 1.06 0 0 0-1.062-1.062h-5.257a1.06 1.06 0 0 0-1.062 1.062v5.26a1.06 1.06 0 0 0 1.062 1.062m1.062-5.255h3.131V22h-3.131zm20.079.5H40.5v2.126h12.732zm0 8.759H40.5v2.126h12.732zm-21.14 4.755h5.255a1.063 1.063 0 0 0 1.064-1.062v-5.254a1.063 1.063 0 0 0-1.064-1.065h-5.255a1.062 1.062 0 0 0-1.064 1.062v5.254a1.062 1.062 0 0 0 1.064 1.062m1.062-5.254h3.13v3.129h-3.13z" transform="translate(-2.661 -5.058)" style="fill:#fff"/>
    </g>
</svg>
