<svg xmlns="http://www.w3.org/2000/svg" width="244" height="30" viewBox="0 0 244 30">
    <defs>
        <clipPath id="xhojhnqgha">
            <path data-name="사각형 6007" style="fill:none" d="M0 0h242.624v22.657H0z"/>
        </clipPath>
    </defs>
    <g data-name="그룹 7573" transform="translate(0 3.452)" style="clip-path:url(#xhojhnqgha)">
        <path data-name="패스 13075" d="M129.921 1.225h-8.838a4.908 4.908 0 0 0-4.767 5.029v16.403h4.955v-7.344a.265.265 0 0 1 .263-.266h7.928a.265.265 0 0 1 .263.266v7.344h4.959V6.252a4.908 4.908 0 0 0-4.763-5.027m-.192 5.625v2.895a.265.265 0 0 1-.263.266h-7.928a.265.265 0 0 1-.263-.266V6.848a.265.265 0 0 1 .263-.266h7.928a.265.265 0 0 1 .263.266"/>
        <path data-name="패스 13076" d="M173.412 1.225h-8.839a4.908 4.908 0 0 0-4.77 5.027v16.405h4.959v-7.344a.265.265 0 0 1 .263-.266h7.928a.265.265 0 0 1 .263.266v7.344h4.959V6.252a4.908 4.908 0 0 0-4.763-5.027m-.192 5.625v2.895a.265.265 0 0 1-.263.266h-7.928a.265.265 0 0 1-.263-.266V6.848a.265.265 0 0 1 .263-.266h7.928a.265.265 0 0 1 .263.266"/>
        <path data-name="사각형 6006" d="M75.144 9.144h10.555v5.359H75.144z"/>
        <path data-name="패스 13077" d="M66.843 1.041h-10.5a2.9 2.9 0 0 0-2.9 2.9v15.634a2.9 2.9 0 0 0 2.9 2.9h10.5a4.982 4.982 0 0 0 4.974-4.979V6.018a4.982 4.982 0 0 0-4.974-4.977m-8.42 8.4V6.58a.261.261 0 0 1 .261-.26h7.9a.261.261 0 0 1 .261.26v2.861a.261.261 0 0 1-.261.26h-7.9a.261.261 0 0 1-.261-.26m0 4.728a.26.26 0 0 1 .261-.26h7.9a.261.261 0 0 1 .261.26v2.872a.261.261 0 0 1-.261.261h-7.9a.261.261 0 0 1-.261-.261z"/>
        <path data-name="패스 13078" d="m23.657 20.072-1.7-11.2-3.386 11.39c-.659 1.683-1.682 2.2-4.211 2.2h-1.786L9.755 8.871 6.261 20.53c-.79 1.826-1.8 1.933-3.251 1.933H0L8.215 0c3.688 0 5.322.95 5.709 3.527l2.093 9.921L20.423 0c3.922 0 5.4 1.58 5.7 3.5l2.889 18.968h-1.87c-1.225 0-2.981.308-3.484-2.391" style="fill:#80af4d"/>
        <path data-name="패스 13079" d="M67.506 6.9h-2.137a.614.614 0 0 1-.612-.612v-4.94a.614.614 0 0 1 .612-.612h2.137a.614.614 0 0 1 .612.612v4.938a.614.614 0 0 1-.612.612" transform="translate(-25.123 -.286)" style="fill:#80af4d"/>
        <path data-name="패스 13080" d="M45.535 1.041h-1.4v5.257h.723a.261.261 0 0 1 .26.261v10.395a.261.261 0 0 1-.26.261H37.77a.261.261 0 0 1-.26-.261V6.56a.261.261 0 0 1 .26-.261h.723V1.041h-1.4a4.982 4.982 0 0 0-4.967 4.986v11.461a4.982 4.982 0 0 0 4.967 4.986h8.442a4.982 4.982 0 0 0 4.967-4.986V6.025a4.982 4.982 0 0 0-4.967-4.984"/>
        <path data-name="패스 13081" d="M208.508 6.49h12.777V1.226h-15.5a2.891 2.891 0 0 0-2.877 2.9v15.631a2.892 2.892 0 0 0 2.877 2.9h15.5V17.39h-12.777a.259.259 0 0 1-.256-.261V14.31h11.652V9.569h-11.653V6.75a.259.259 0 0 1 .256-.26"/>
        <path data-name="패스 13082" d="M199.92 9.007v-2.82a4.984 4.984 0 0 0-4.99-4.961h-10.475a2.9 2.9 0 0 0-2.907 2.892v15.647a2.9 2.9 0 0 0 2.907 2.893h10.475a4.984 4.984 0 0 0 4.99-4.965v-6.9h-7.826v4.822h2.465v1.226a.261.261 0 0 1-.263.259h-7.125a.261.261 0 0 1-.263-.259V6.809a.261.261 0 0 1 .263-.259h7.125a.261.261 0 0 1 .263.259v2.2z"/>
        <path data-name="패스 13083" d="M239.043 15.392a5.042 5.042 0 0 0 3.421-4.808v-4.3a5.008 5.008 0 0 0-4.943-5.058H227.13a2.916 2.916 0 0 0-2.878 2.941v18.49h5.627v-7.013h2.809l3.855 7.014h6.082zm-1.615-5.226a.263.263 0 0 1-.26.265h-7.055a.255.255 0 0 1-.235-.173V6.607a.255.255 0 0 1 .235-.172h7.055a.263.263 0 0 1 .26.265z"/>
        <path data-name="패스 13084" d="M107.928 1.226H92.141a2.936 2.936 0 0 0-2.924 2.942v18.49h5.942V7.013a.268.268 0 0 1 .266-.269h2.87a.268.268 0 0 1 .266.269v15.645h5.156V7.013a.268.268 0 0 1 .266-.269h2.87a.268.268 0 0 1 .266.269v15.645h5.828V6.276a5.043 5.043 0 0 0-5.019-5.05"/>
        <path data-name="패스 13085" d="M143.439 22.658V6.826a.262.262 0 0 1 .263-.26h7.126a.261.261 0 0 1 .263.26v15.832h5.361V6.199a4.99 4.99 0 0 0-4.992-4.973h-10.475a2.906 2.906 0 0 0-2.91 2.9v18.532z"/>
    </g>
    <path data-name="사각형 2" style="fill:transparent" d="M0 0h244v30H0z"/>
</svg>
