<svg xmlns="http://www.w3.org/2000/svg" width="300" height="29.002" viewBox="0 0 300 29.002">
    <defs>
        <clipPath id="274px0piaa">
            <path data-name="사각형 6005" style="fill:none" d="M0 0h297.883v27.817H0z"/>
        </clipPath>
    </defs>
    <path data-name="사각형 2" transform="translate(0 .002)" style="fill:transparent" d="M0 0h300v29H0z"/>
    <g data-name="그룹 7572" transform="translate(1)" style="clip-path:url(#274px0piaa)">
        <path data-name="패스 13064" d="M159.51 1.503h-10.848a6.026 6.026 0 0 0-5.853 6.174v20.14h6.089v-9.014a.325.325 0 0 1 .323-.327h9.733a.325.325 0 0 1 .323.327v9.017h6.085V7.675a6.026 6.026 0 0 0-5.852-6.172m-.236 6.9v3.554a.325.325 0 0 1-.323.326h-9.733a.325.325 0 0 1-.323-.326V8.403a.325.325 0 0 1 .323-.327h9.733a.325.325 0 0 1 .323.327"/>
        <path data-name="패스 13065" d="M212.906 1.503h-10.851a6.026 6.026 0 0 0-5.856 6.172v20.142h6.089v-9.014a.325.325 0 0 1 .323-.327h9.733a.325.325 0 0 1 .323.327v9.017h6.088V7.675a6.026 6.026 0 0 0-5.849-6.172m-.236 6.9v3.554a.325.325 0 0 1-.323.326h-9.733a.325.325 0 0 1-.323-.326V8.403a.325.325 0 0 1 .323-.327h9.733a.325.325 0 0 1 .323.327"/>
        <path data-name="사각형 6004" d="M92.258 11.226h12.959v6.58H92.258z"/>
        <path data-name="패스 13066" d="M82.067 1.278H69.173a3.563 3.563 0 0 0-3.557 3.561v19.2a3.563 3.563 0 0 0 3.557 3.56h12.895a6.117 6.117 0 0 0 6.107-6.113V7.389a6.117 6.117 0 0 0-6.108-6.111M71.726 11.596V8.078a.32.32 0 0 1 .32-.319h9.7a.321.321 0 0 1 .321.319v3.517a.321.321 0 0 1-.321.319h-9.7a.32.32 0 0 1-.32-.319m0 5.8a.32.32 0 0 1 .32-.319h9.7a.32.32 0 0 1 .321.319v3.523a.321.321 0 0 1-.321.32h-9.7a.32.32 0 0 1-.32-.32z"/>
        <path data-name="패스 13067" d="m29.045 24.644-2.081-13.753L22.8 24.877c-.809 2.066-2.065 2.7-5.17 2.7h-2.192l-3.462-16.686-4.289 14.315c-.969 2.242-2.2 2.374-3.991 2.374H0L10.087 0c4.527 0 6.534 1.166 7.009 4.331l2.569 12.181L25.074 0c4.815 0 6.633 1.94 7 4.291l3.55 23.289h-2.3c-1.5 0-3.659.378-4.278-2.936" style="fill:#80af4d"/>
        <path data-name="패스 13068" d="M68.132 8.3h-2.624a.754.754 0 0 1-.751-.751V1.487a.754.754 0 0 1 .751-.751h2.623a.754.754 0 0 1 .751.751V7.55a.754.754 0 0 1-.751.751" transform="translate(-16.096 -.183)" style="fill:#80af4d"/>
        <path data-name="패스 13069" d="M55.904 1.278h-1.716v6.455h.887a.32.32 0 0 1 .319.321v12.762a.32.32 0 0 1-.319.32h-8.7a.32.32 0 0 1-.319-.32V8.054a.32.32 0 0 1 .319-.321h.887V1.278h-1.719a6.116 6.116 0 0 0-6.1 6.121v14.073a6.117 6.117 0 0 0 6.1 6.122h10.361a6.117 6.117 0 0 0 6.1-6.122V7.397a6.116 6.116 0 0 0-6.1-6.121"/>
        <path data-name="패스 13070" d="M255.992 7.968h15.687V1.504h-19.021a3.55 3.55 0 0 0-3.532 3.56v19.2a3.55 3.55 0 0 0 3.532 3.561h19.026V21.35h-15.692a.318.318 0 0 1-.315-.32v-3.46h14.315v-5.822h-14.31V8.287a.318.318 0 0 1 .315-.319"/>
        <path data-name="패스 13071" d="M245.455 11.058V7.596a6.119 6.119 0 0 0-6.128-6.092h-12.858a3.564 3.564 0 0 0-3.569 3.551v19.211a3.564 3.564 0 0 0 3.569 3.551h12.862a6.119 6.119 0 0 0 6.128-6.1v-8.466h-9.609v5.921h3.019v1.505a.321.321 0 0 1-.323.318h-8.748a.32.32 0 0 1-.322-.318V8.359a.32.32 0 0 1 .322-.318h8.748a.321.321 0 0 1 .323.318v2.7z"/>
        <path data-name="패스 13072" d="M293.486 18.897a6.191 6.191 0 0 0 4.2-5.9V7.711a6.149 6.149 0 0 0-6.069-6.207H278.86a3.58 3.58 0 0 0-3.534 3.612v22.7h6.909v-8.612h3.449l4.733 8.611h7.468zm-1.982-6.417a.322.322 0 0 1-.319.325h-8.659a.313.313 0 0 1-.289-.212V8.111a.313.313 0 0 1 .289-.207h8.662a.322.322 0 0 1 .319.325z"/>
        <path data-name="패스 13073" d="M132.51 1.504h-19.383a3.6 3.6 0 0 0-3.59 3.612v22.702h7.295V8.61a.329.329 0 0 1 .327-.331h3.524a.329.329 0 0 1 .327.331v19.208h6.331V8.61a.329.329 0 0 1 .326-.331h3.524a.329.329 0 0 1 .327.331v19.208h7.157V7.704a6.192 6.192 0 0 0-6.165-6.2"/>
        <path data-name="패스 13074" d="M176.108 27.818V8.376a.321.321 0 0 1 .322-.319h8.749a.321.321 0 0 1 .322.319v19.442h6.583V7.61a6.127 6.127 0 0 0-6.129-6.106h-12.86a3.568 3.568 0 0 0-3.569 3.56v22.754z"/>
    </g>
</svg>
