<svg xmlns="http://www.w3.org/2000/svg" width="210" height="36" viewBox="0 0 210 36">
    <defs>
        <clipPath id="kep1mxeina">
            <path data-name="사각형 581" transform="translate(0 -.214)" style="fill:#555" d="M0 0h210v36H0z"/>
        </clipPath>
    </defs>
    <g data-name="그룹 1876" transform="translate(0 .214)" style="clip-path:url(#kep1mxeina)">
        <path data-name="패스 3185" d="M277.681 16.6a10.468 10.468 0 0 0-6.9-2.6 10.19 10.19 0 1 0 0 20.378 10.47 10.47 0 0 0 6.9-2.6v2.6h3.453V14h-3.453zm0 7.587a6.9 6.9 0 1 1-6.9-6.793 6.855 6.855 0 0 1 6.9 6.793" transform="translate(-148.038 -8.056)" style="fill:#555"/>
        <path data-name="패스 3186" d="M367.067 16.6a10.458 10.458 0 0 0-15.356 1.7l-6.563 9.435-.24.335a6.948 6.948 0 0 1-5.658 2.913 6.793 6.793 0 1 1 6.653-8.576l.247.886 3.457-4.97V14h-3.453v2.6a10.475 10.475 0 0 0-6.905-2.6 10.19 10.19 0 1 0 0 20.378 10.43 10.43 0 0 0 8.27-4.062l.015.008 6.693-9.621.3-.439a6.959 6.959 0 0 1 5.636-2.868 6.793 6.793 0 1 1-6.656 8.577l-.245-.885-2.438 3.506.115.225a10.351 10.351 0 0 0 9.223 5.559 10.465 10.465 0 0 0 6.9-2.6v2.6h3.455V14h-3.455z" transform="translate(-186.957 -8.056)" style="fill:#555"/>
        <path data-name="패스 3187" d="M466.993 21.553a7.677 7.677 0 0 0-7.707-7.179 7.818 7.818 0 0 0-4.279 1.277V14h-3.453v20.378h3.453v-12.4a4.28 4.28 0 0 1 8.558 0v12.4h3.452V21.553z" transform="translate(-256.685 -8.056)" style="fill:#555"/>
        <path data-name="사각형 577" transform="translate(187.191 5.944)" style="fill:#555" d="M0 0h3.452v20.378H0z"/>
        <path data-name="사각형 578" transform="translate(187.191)" style="fill:#555" d="M0 0h3.452v3.821H0z"/>
        <path data-name="사각형 579" transform="translate(107.383 5.944)" style="fill:#555" d="M0 0h3.452v20.378H0z"/>
        <path data-name="사각형 580" transform="translate(107.383)" style="fill:#555" d="M0 0h3.452v3.821H0z"/>
        <path data-name="패스 3188" d="M158.553 34.378h15.1v-3.4H162v-5.091h11.651v-3.4H162V17.4h11.651V14h-15.1z" transform="translate(-90.129 -8.056)" style="fill:#555"/>
        <path data-name="패스 3189" d="M105.686 14.373a7.785 7.785 0 0 0-6 2.824A7.8 7.8 0 0 0 89.4 15.651V14h-3.451v20.378H89.4v-12.4a4.278 4.278 0 0 1 8.555 0v12.4h3.452v-12.4a4.278 4.278 0 0 1 8.555 0v12.4h3.453v-12.4a7.677 7.677 0 0 0-7.73-7.6" transform="translate(-48.858 -8.056)" style="fill:#555"/>
        <path data-name="패스 3190" d="M209.418 14h-7.38v20.378h7.38a10.19 10.19 0 1 0 0-20.378m6.905 10.189a6.856 6.856 0 0 1-6.905 6.792h-3.927V17.4h3.927a6.856 6.856 0 0 1 6.905 6.793" transform="translate(-114.848 -8.056)" style="fill:#555"/>
        <path data-name="패스 3191" d="M347.755 57.9a6.227 6.227 0 0 1-5.917 4.3 6.148 6.148 0 0 1-6.191-6.092v-.425h-3.453v.425a9.645 9.645 0 0 0 19.288 0v-3.6l-3.668 5.275z" transform="translate(-188.836 -30.216)" style="fill:#555"/>
        <path data-name="패스 3192" d="m41.014 24.278 5.427-5.339v2.869h2.589v-7.217h-7.336v2.547h2.916l-5.427 5.339z" transform="translate(-22.274 -8.397)" style="fill:#555"/>
        <path data-name="패스 3193" d="M37.23 37.591h-.006c0 .146.007.287.006.41v.03c.009 1.441-.3 4.563-1.534 6.066-.517.63-3.67 1.561-8.8 1.561h-.917c-1.1 0-2.1-.044-3.005-.118 0 .04.009.078.009.118v2.435c1.3.1 2.406.112 3 .112h.912c1.863 0 8.885-.159 10.813-2.508 2.061-2.511 2.113-7.015 2.109-7.681 0-.084 0-.23-.005-.425z" transform="translate(-13.063 -21.632)" style="fill:#555"/>
        <path data-name="패스 3194" d="m8.016 39.775-5.427 5.339v-2.869H0v7.217h7.336v-2.547H4.42l5.426-5.339z" transform="translate(0 -22.889)" style="fill:#555"/>
        <path data-name="패스 3195" d="M16.83 17.139V14.7c-1.3-.1-2.406-.113-3-.113h-.912c-1.863 0-8.885.159-10.813 2.508C.048 19.611 0 24.115 0 24.781c0 .084 0 .23.005.425H2.6c0-.146-.007-.287-.006-.41v-.03c-.009-1.441.3-4.563 1.534-6.066.517-.63 3.67-1.561 8.8-1.561h.916c1.1 0 2.1.044 3 .118 0-.04-.009-.078-.009-.118" transform="translate(0 -8.397)" style="fill:#555"/>
    </g>
</svg>
