<svg width="120" height="48" viewBox="0 0 120 48" fill="none" xmlns="http://www.w3.org/2000/svg">
<g clip-path="url(#clip0_76_2)">
<mask id="mask0_76_2" style="mask-type:luminance" maskUnits="userSpaceOnUse" x="0" y="0" width="120" height="48">
<path d="M0 0H120V48H0V0Z" fill="white"/>
</mask>
<g mask="url(#mask0_76_2)">
<path d="M15.429 23.5593C16.8087 22.8974 17.9746 21.8611 18.794 20.5686C19.6133 19.2762 20.053 17.7795 20.063 16.2493C20.0517 15.1414 19.8194 14.0469 19.3796 13.0299C18.9399 12.0129 18.3016 11.0939 17.5021 10.3268C16.7027 9.55962 15.7581 8.95976 14.7239 8.56234C13.6896 8.16492 12.5865 7.97792 11.479 8.01231H0.981005C0.851784 8.01271 0.723906 8.03855 0.604672 8.08836C0.485438 8.13818 0.377183 8.21099 0.286089 8.30264C0.194994 8.39429 0.122844 8.50299 0.0737579 8.62252C0.0246714 8.74206 -0.000389979 8.87009 4.5875e-06 8.99931V11.6703H11.352C11.9799 11.6279 12.6098 11.7148 13.2027 11.9256C13.7957 12.1363 14.3391 12.4665 14.7993 12.8957C15.2596 13.325 15.6268 13.844 15.8784 14.4209C16.13 14.9977 16.2606 15.62 16.262 16.2493C16.2207 17.5195 15.6774 18.7216 14.7511 19.5918C13.8249 20.462 12.5913 20.9293 11.321 20.8913H4.5875e-06V32.2143C-0.000261488 32.4752 0.102986 32.7255 0.28709 32.9104C0.471193 33.0953 0.721113 33.1995 0.982005 33.2003H2.82C3.08055 33.199 3.32996 33.0945 3.51363 32.9097C3.6973 32.7249 3.80027 32.4749 3.8 32.2143V24.5513H11.756L16.289 32.6963C16.3748 32.8482 16.4995 32.9746 16.6503 33.0625C16.8011 33.1503 16.9725 33.1965 17.147 33.1963H19.207C19.3793 33.1957 19.5484 33.1499 19.6974 33.0635C19.8465 32.9772 19.9704 32.8533 20.0566 32.7042C20.1429 32.5551 20.1886 32.386 20.1892 32.2137C20.1898 32.0414 20.1453 31.872 20.06 31.7223L15.429 23.5593Z" fill="black"/>
<path d="M119.682 38.5481L116.828 3.42509C116.75 2.44223 116.285 1.53063 115.534 0.890775C114.784 0.25092 113.811 -0.0647872 112.828 0.0130899L48.1279 5.31309C47.1445 5.3956 46.234 5.86511 45.5964 6.6185C44.9589 7.37189 44.6466 8.34753 44.7279 9.33109L46.4089 29.9571H31.5659C29.9545 30.044 28.3668 29.5394 27.1013 28.5379C25.8358 27.5365 24.9797 26.1074 24.6939 24.5191H40.9089C41.0381 24.5188 41.166 24.4931 41.2853 24.4434C41.4046 24.3937 41.5129 24.321 41.6041 24.2295C41.6953 24.1379 41.7676 24.0293 41.8168 23.9098C41.866 23.7903 41.8912 23.6623 41.8909 23.5331V22.7071C41.9414 21.3231 41.7068 19.9436 41.2015 18.6542C40.6963 17.3648 39.9313 16.193 38.9541 15.2117C37.9769 14.2305 36.8083 13.4607 35.521 12.9501C34.2336 12.4396 32.8551 12.1993 31.4709 12.2441C30.0593 12.2211 28.6577 12.4844 27.3507 13.0182C26.0437 13.5519 24.8584 14.3451 23.8665 15.3497C22.8746 16.3544 22.0966 17.5496 21.5795 18.8633C21.0624 20.177 20.8169 21.5819 20.8579 22.9931C20.8579 29.2281 25.2579 33.5831 31.5659 33.5831H46.7019L47.5849 44.4541C47.663 45.4369 48.1282 46.3486 48.8784 46.9884C49.6285 47.6283 50.6021 47.944 51.5849 47.8661L116.285 42.5661C117.268 42.4836 118.179 42.0141 118.816 41.2607C119.454 40.5073 119.766 39.5317 119.685 38.5481M31.4709 15.8691C32.9634 15.8053 34.4303 16.2716 35.612 17.1854C36.7938 18.0992 37.6141 19.4016 37.9279 20.8621H24.8499C25.2546 19.4197 26.1215 18.15 27.3176 17.248C28.5137 16.346 29.9729 15.8616 31.4709 15.8691ZM59.3319 25.7911H55.1519V32.2151C55.1522 32.476 55.0489 32.7263 54.8648 32.9112C54.6807 33.096 54.4308 33.2003 54.1699 33.2011H52.3319C52.2027 33.2008 52.0748 33.1751 51.9555 33.1254C51.8362 33.0757 51.7279 33.003 51.6367 32.9115C51.5455 32.8199 51.4733 32.7113 51.4241 32.5918C51.3749 32.4723 51.3497 32.3443 51.3499 32.2151V22.1001H59.2379C62.6479 22.1001 64.9379 20.0001 64.9379 16.8841C64.9379 13.7161 62.6999 11.6681 59.2379 11.6681H51.3489V9.00009C51.3487 8.87087 51.3738 8.74286 51.4231 8.62338C51.4723 8.50389 51.5445 8.39527 51.6357 8.30371C51.7269 8.21215 51.8352 8.13945 51.9545 8.08976C52.0738 8.04006 52.2017 8.01435 52.3309 8.01409H59.3309C64.8009 8.01409 68.7719 11.7461 68.7719 16.8871C68.7719 22.0471 64.8009 25.7871 59.3309 25.7871M90.9809 32.2111C90.9812 32.472 90.8779 32.7223 90.6938 32.9072C90.5097 33.092 90.2598 33.1963 89.9989 33.1971H88.2249C87.964 33.1963 87.7141 33.092 87.53 32.9072C87.3459 32.7223 87.2427 32.472 87.2429 32.2111V30.9001C85.4028 32.6174 82.9819 33.576 80.4649 33.5841C79.0685 33.5924 77.6844 33.3217 76.3939 32.788C75.1034 32.2543 73.9325 31.4683 72.9499 30.476C71.9672 29.4837 71.1926 28.3053 70.6714 27.0096C70.1503 25.714 69.8931 24.3274 69.9149 22.9311C69.8901 21.5324 70.1451 20.1429 70.6648 18.8441C71.1845 17.5454 71.9584 16.3635 72.9413 15.368C73.9241 14.3726 75.0959 13.5835 76.3879 13.0472C77.6799 12.5109 79.0661 12.2382 80.4649 12.2451C82.9853 12.2558 85.4077 13.2225 87.2429 14.9501V13.6111C87.2427 13.3502 87.3459 13.0999 87.53 12.915C87.7141 12.7301 87.964 12.6259 88.2249 12.6251H89.9989C90.2598 12.6259 90.5097 12.7301 90.6938 12.915C90.8779 13.0999 90.9812 13.3502 90.9809 13.6111V32.2111ZM112.981 14.0111L100.881 41.2011C100.804 41.3753 100.678 41.5233 100.518 41.627C100.358 41.7307 100.171 41.7857 99.9809 41.7851H98.0169C97.852 41.7853 97.6897 41.7442 97.5447 41.6655C97.3998 41.5868 97.277 41.4729 97.1874 41.3344C97.0979 41.196 97.0445 41.0372 97.0322 40.8728C97.0199 40.7083 97.049 40.5434 97.1169 40.3931L101.27 31.1741L93.1699 14.0321C93.0987 13.8821 93.0665 13.7165 93.0763 13.5507C93.0861 13.3849 93.1377 13.2243 93.2261 13.0838C93.3146 12.9433 93.4372 12.8273 93.5824 12.7468C93.7276 12.6663 93.8908 12.6237 94.0569 12.6231H96.0849C96.2715 12.6234 96.4542 12.6768 96.6116 12.777C96.769 12.8773 96.8946 13.0202 96.9739 13.1891L103.309 26.7161L109.219 13.2161C109.295 13.0409 109.421 12.8919 109.581 12.7872C109.741 12.6826 109.928 12.6269 110.119 12.6271H112.083C112.248 12.6268 112.41 12.6678 112.554 12.7463C112.699 12.8248 112.822 12.9383 112.911 13.0765C113.001 13.2146 113.054 13.373 113.067 13.5371C113.079 13.7013 113.05 13.866 112.983 14.0161" fill="black"/>
<path d="M80.5272 15.901C79.6158 15.9058 78.7146 16.0924 77.8763 16.4499C77.038 16.8075 76.2795 17.3288 75.6452 17.9832C75.011 18.6377 74.5138 19.4121 74.1827 20.2612C73.8516 21.1103 73.6934 22.017 73.7172 22.928C73.7501 24.2793 74.1815 25.5908 74.9573 26.6978C75.733 27.8047 76.8185 28.6578 78.0774 29.15C79.3363 29.6422 80.7126 29.7514 82.0334 29.4641C83.3542 29.1768 84.5607 28.5056 85.5014 27.535C86.4421 26.5643 87.075 25.3374 87.3208 24.0082C87.5666 22.679 87.4142 21.3069 86.8828 20.064C86.3514 18.8211 85.4647 17.7629 84.3339 17.0223C83.2032 16.2817 81.8789 15.8916 80.5272 15.901Z" fill="black"/>
</g>
</g>
<defs>
<clipPath id="clip0_76_2">
<rect width="120" height="48" fill="white"/>
</clipPath>
</defs>
</svg>
