<svg xmlns="http://www.w3.org/2000/svg" width="120" height="48" viewBox="0 0 120 48">
    <defs>
        <clipPath id="nfxvz3z7ba">
            <path data-name="사각형 2" style="fill:none" d="M0 0h120v48H0z"/>
        </clipPath>
    </defs>
    <g data-name="그룹 1" style="clip-path:url(#nfxvz3z7ba)">
        <path data-name="패스 1" d="M15.429 27.735a8.167 8.167 0 0 0 4.634-7.31 8.326 8.326 0 0 0-8.584-8.237H.981a.984.984 0 0 0-.981.987v2.671h11.352a4.6 4.6 0 0 1 4.91 4.579 4.8 4.8 0 0 1-4.941 4.642H0V36.39a.985.985 0 0 0 .982.986H2.82a.985.985 0 0 0 .98-.986v-7.663h7.956l4.533 8.145a.984.984 0 0 0 .858.5h2.06a.986.986 0 0 0 .853-1.474z" transform="translate(0 -4.176)" style="fill:#fff"/>
        <path data-name="패스 2" d="m130.673 38.548-2.854-35.123a3.718 3.718 0 0 0-4-3.412l-64.7 5.3a3.724 3.724 0 0 0-3.4 4.018L57.4 29.957H42.557a6.62 6.62 0 0 1-6.872-5.438H51.9a.984.984 0 0 0 .982-.986v-.826a10.1 10.1 0 0 0-10.42-10.463 10.447 10.447 0 0 0-10.613 10.749c0 6.235 4.4 10.59 10.708 10.59h15.136l.883 10.871a3.718 3.718 0 0 0 4 3.412l64.7-5.3a3.724 3.724 0 0 0 3.4-4.018M42.462 15.869a6.328 6.328 0 0 1 6.457 4.993H35.841a6.841 6.841 0 0 1 6.621-4.993m27.861 9.922h-4.18v6.424a.985.985 0 0 1-.982.986h-1.838a.984.984 0 0 1-.982-.986V22.1h7.888c3.41 0 5.7-2.1 5.7-5.216 0-3.168-2.238-5.216-5.7-5.216H62.34V9a.984.984 0 0 1 .982-.986h7c5.47 0 9.441 3.732 9.441 8.873 0 5.16-3.971 8.9-9.441 8.9m31.65 6.424a.985.985 0 0 1-.982.986h-1.774a.985.985 0 0 1-.982-.986V30.9a9.981 9.981 0 0 1-6.778 2.684 10.489 10.489 0 0 1-10.55-10.653 10.5 10.5 0 0 1 10.55-10.686 9.95 9.95 0 0 1 6.778 2.705v-1.339a.985.985 0 0 1 .982-.986h1.774a.985.985 0 0 1 .982.986zm22-18.2-12.1 27.19a.981.981 0 0 1-.9.584h-1.964a.986.986 0 0 1-.9-1.392l4.153-9.219-8.1-17.142a.986.986 0 0 1 .887-1.409h2.028a.984.984 0 0 1 .889.566l6.335 13.527 5.91-13.5a.981.981 0 0 1 .9-.589h1.964a.985.985 0 0 1 .9 1.389" transform="translate(-10.991)" style="fill:#fff"/>
        <path data-name="패스 3" d="M119.373 24.186a6.848 6.848 0 0 0-6.81 7.027 6.86 6.86 0 1 0 6.81-7.027" transform="translate(-38.846 -8.285)" style="fill:#fff"/>
    </g>
</svg>
