<svg xmlns="http://www.w3.org/2000/svg" width="170.457" height="24.623" viewBox="0 0 170.457 24.623">
    <g data-name="그룹 53">
        <path data-name="패스 8" d="M13.154 528.941c-.152-2.335-.94-3.093-3.184-3.093H6.938v8.339H1.176v-24.2h10.189c5.216 0 7.914 2.851 7.914 7.4 0 3.245-1.516 5.337-4.215 6.1 2.577.424 3.578 1.971 3.791 5.125l.212 3.336a5.833 5.833 0 0 0 .515 2.244h-5.821a8.18 8.18 0 0 1-.425-2.214zm-2.881-7.763c2.031 0 3.245-.91 3.245-3.275 0-2.335-1.213-3.244-3.245-3.244H6.938v6.519z" style="fill:#9e1437" transform="translate(-1.176 -509.988)"/>
        <path data-name="패스 9" d="M74.483 541.942v.3c0 2.456 1.092 3.7 2.881 3.7a2.3 2.3 0 0 0 2.487-1.971h5.4c-.576 3.609-3.366 5.731-7.884 5.731-5.762 0-8.309-3.609-8.309-9.067s2.547-9.067 8.309-9.067c5.731 0 8.248 3.609 8.248 9.067 0 .455-.03 1-.06 1.3zm5.671-3.063c-.06-2.365-1.031-3.548-2.851-3.548-1.789 0-2.759 1.183-2.82 3.548z" transform="translate(-48.646 -525.081)" style="fill:#fff"/>
        <path data-name="패스 10" d="M139.8 538.441h-5.49v-5.459h5.49zm0 11.826h-5.49v-5.459h5.49z" transform="translate(-94.281 -526.068)" style="fill:#fff"/>
        <path data-name="패스 11" d="M171.161 531.57c4.943 0 7.854 2.578 8.066 6.672h-5.367c-.182-1.819-1.091-2.608-2.7-2.608-2 0-2.911 1.334-2.911 5s.91 5 2.911 5c1.607 0 2.517-.819 2.7-2.608h5.367c-.212 4.094-3.123 6.671-8.066 6.671-5.731 0-8.309-3.578-8.309-9.067s2.578-9.06 8.309-9.06z" transform="translate(-114.241 -525.081)" style="fill:#fff"/>
        <path data-name="패스 12" d="M231.073 531.57c5.7 0 8.249 3.579 8.249 9.067s-2.547 9.067-8.249 9.067c-5.731 0-8.308-3.578-8.308-9.067s2.577-9.067 8.308-9.067zm0 14.071c1.971 0 2.881-1.335 2.881-5s-.91-5-2.881-5c-2 0-2.911 1.334-2.911 5s.91 5 2.911 5z" transform="translate(-156.14 -525.081)" style="fill:#fff"/>
        <path data-name="패스 13" d="M301.438 549.28h-5.4v-10.887c0-1.91-.7-2.76-2.122-2.76-1.729 0-2.821 1.395-2.821 3.821v9.825h-5.4v-17.284h5.4v2.76a4.658 4.658 0 0 1 4.761-3.184c3.579 0 5.58 2.214 5.58 6.672z" transform="translate(-200.152 -525.081)" style="fill:#fff"/>
        <path data-name="패스 14" d="M362.861 549.28h-5.4v-10.887c0-1.91-.7-2.76-2.122-2.76-1.729 0-2.821 1.395-2.821 3.821v9.825h-5.4v-17.284h5.4v2.76a4.658 4.658 0 0 1 4.761-3.184c3.578 0 5.58 2.214 5.58 6.672z" transform="translate(-243.108 -525.081)" style="fill:#fff"/>
        <path data-name="패스 15" d="M412.561 541.942v.3c0 2.456 1.092 3.7 2.881 3.7a2.3 2.3 0 0 0 2.487-1.971h5.4c-.576 3.609-3.366 5.731-7.884 5.731-5.762 0-8.309-3.609-8.309-9.067s2.547-9.067 8.309-9.067c5.731 0 8.248 3.609 8.248 9.067 0 .455-.03 1-.06 1.3zm5.671-3.063c-.061-2.365-1.031-3.548-2.851-3.548-1.789 0-2.759 1.183-2.82 3.548z" transform="translate(-285.075 -525.081)" style="fill:#fff"/>
        <path data-name="패스 16" d="M476.965 531.57c4.943 0 7.854 2.578 8.066 6.672h-5.367c-.182-1.819-1.092-2.608-2.7-2.608-2 0-2.911 1.334-2.911 5s.91 5 2.911 5c1.607 0 2.517-.819 2.7-2.608h5.367c-.212 4.094-3.123 6.671-8.066 6.671-5.732 0-8.309-3.578-8.309-9.067s2.578-9.06 8.309-9.06z" transform="translate(-328.1 -525.081)" style="fill:#fff"/>
        <path data-name="패스 17" d="M534.7 532.626c0 1.971.637 2.426 2.729 2.426h1.759v3.942c-.727.061-2.334.091-3.275.091-4.852 0-6.611-1.547-6.611-5.731v-7.763h-2.548v-4.033h2.546v-4.912h5.4v4.912h4.487v4.033H534.7z" transform="translate(-368.729 -514.643)" style="fill:#fff"/>
    </g>
</svg>
