<svg xmlns="http://www.w3.org/2000/svg" width="12" height="12" viewBox="0 0 12 12">
    <g data-name="사각형 5434" style="stroke:#fff;fill:none">
        <rect width="12" height="12" rx="6" style="stroke:none"/>
        <rect x=".5" y=".5" width="11" height="11" rx="5.5" style="fill:none"/>
    </g>
    <path data-name="패스 12805" d="M3.344.1a3.352 3.352 0 0 1-1.2-.212 2.828 2.828 0 0 1-.964-.6 2.8 2.8 0 0 1-.64-.928A2.9 2.9 0 0 1 .312-2.8 2.9 2.9 0 0 1 .54-3.96a2.774 2.774 0 0 1 .64-.92 2.88 2.88 0 0 1 .964-.6 3.342 3.342 0 0 1 1.208-.22 3.309 3.309 0 0 1 1.316.252 2.564 2.564 0 0 1 .988.74l-.832.768a1.947 1.947 0 0 0-.64-.492 1.8 1.8 0 0 0-.768-.164 1.964 1.964 0 0 0-.72.128 1.632 1.632 0 0 0-.568.368 1.681 1.681 0 0 0-.372.568 1.934 1.934 0 0 0-.132.728 1.934 1.934 0 0 0 .132.728 1.681 1.681 0 0 0 .372.568 1.632 1.632 0 0 0 .568.368 1.964 1.964 0 0 0 .72.128 1.8 1.8 0 0 0 .768-.164 1.9 1.9 0 0 0 .64-.5l.832.776a2.6 2.6 0 0 1-.988.744A3.285 3.285 0 0 1 3.344.1z" transform="translate(3 8.8)" style="fill:#fff"/>
</svg>
