<svg xmlns="http://www.w3.org/2000/svg" width="138" height="28" viewBox="0 0 138 28">
    <defs>
        <clipPath id="zbgqedp3sa">
            <path data-name="사각형 3" transform="translate(0 -.121)" style="fill:#fff" d="M0 0h138v28H0z"/>
        </clipPath>
    </defs>
    <g style="isolation:isolate">
        <path data-name="사각형 2" style="fill:transparent" d="M0 0h91v28H0z"/>
        <g data-name="그룹 2">
            <g data-name="그룹 1" style="clip-path:url(#zbgqedp3sa)" transform="translate(0 .121)">
                <path data-name="패스 1" d="M10.078 45.511v8.115c0 .342 0 .35-.353.366s-.688.026-1.031.017c-1.508-.043-3.017.039-4.526-.03-.181-.008-.261-.04-.3-.258a4.72 4.72 0 0 1 .017-.888V39.643c0-.238-.074-.3-.3-.3-1.107.01-2.213 0-3.32.009C.056 39.358 0 39.3 0 39.09q.016-1.532 0-3.064c0-.211.067-.284.268-.283h1.685c2.113 0 4.225-.006 6.338.006a1.6 1.6 0 0 1 1.788 1.674v8.09" transform="translate(0 -26.133)" style="fill:#fff"/>
                <path data-name="패스 2" d="M14.936 7.545a3.786 3.786 0 0 1-3.867-3.771 3.808 3.808 0 1 1 7.613.179 3.81 3.81 0 0 1-3.746 3.592" transform="translate(-8.093)" style="fill:#fff"/>
                <path data-name="패스 3" d="M78.328 23.643h-13.9c-3.6 0-5.8 1.669-5.8 5.116v16.374h6.151V29.577h3.527v15.556h6.136V29.577h3.528v15.556h6.151V28.76c0-3.447-2.2-5.116-5.8-5.116m40.448 15.666v-9.775h14.489v-5.889H118.1c-3.718 0-5.68 1.977-5.68 5.075v11.424c0 2.818 1.634 4.989 5.784 4.989h15.146v-5.825zm-16-5.646v5.611h-9.105v-9.716h9.112v4.084c3.175 0 6.636-1.288 6.636-4.846 0-3.485-2.683-5.091-6.963-5.154H87.417v21.49h15.158c4.291 0 8.124-1.569 8.124-5.724 0-4.1-3.381-5.746-7.923-5.746" transform="translate(-42.871 -17.287)" style="fill:#fff"/>
                <g data-name="그룹 6018">
                    <path data-name="패스 11885" d="m10.685 5.285 2.962 7.782H7.724zM8.653 0 0 21.487h4.5l1.916-5.023h8.537l1.916 5.023h4.5L12.718 0z" style="fill:#8e84ff" transform="translate(95.3 6.392)"/>
                    <path data-name="패스 11886" d="M222.592 21.487V0h7.753a12.134 12.134 0 0 1 4.555.828 10.678 10.678 0 0 1 3.542 2.279 10.38 10.38 0 0 1 2.308 3.412 10.75 10.75 0 0 1 .827 4.225 10.824 10.824 0 0 1-.823 4.256 10.216 10.216 0 0 1-2.308 3.4 10.8 10.8 0 0 1-3.546 2.26 12.136 12.136 0 0 1-4.559.828zm7.782-3.4a6.749 6.749 0 0 0 2.758-.552 6.28 6.28 0 0 0 2.134-1.525 6.763 6.763 0 0 0 1.365-2.323 8.751 8.751 0 0 0 .479-2.947 8.843 8.843 0 0 0-.479-2.976 6.769 6.769 0 0 0-1.365-2.323 6.129 6.129 0 0 0-2.134-1.51 6.912 6.912 0 0 0-2.758-.537h-3.484V18.09z" transform="translate(-104.104 6.392)" style="fill:#8e84ff"/>
                </g>
            </g>
        </g>
    </g>
</svg>
