<svg xmlns="http://www.w3.org/2000/svg" width="347" height="70" viewBox="0 0 347 70">
    <defs>
        <clipPath id="2w3yzpciva">
            <path data-name="사각형 3" style="fill:#fff" d="M0 0h347v70H0z"/>
        </clipPath>
    </defs>
    <g style="isolation:isolate">
        <path data-name="사각형 2" style="fill:transparent" d="M0 0h228v70H0z"/>
        <g data-name="그룹 2">
            <g data-name="그룹 1" style="clip-path:url(#2w3yzpciva)">
                <path data-name="패스 1" d="M25.3 60.274v20.375c0 .86 0 .879-.886.919-.862.039-1.726.066-2.588.042-3.787-.107-7.576.1-11.363-.076-.454-.021-.655-.1-.753-.649a11.852 11.852 0 0 1 .043-2.23c0-2.145-.005-4.29-.006-6.434q-.006-13.341 0-26.682c0-.6-.185-.746-.753-.741-2.779.024-5.557 0-8.335.023-.526 0-.668-.14-.663-.668q.04-3.847 0-7.694c-.006-.529.168-.714.672-.711 1.411.009 2.82 0 4.231 0 5.3 0 10.609-.015 15.913.016a4.013 4.013 0 0 1 4.49 4.2q-.005 10.156 0 20.312" transform="translate(0 -11.618)" style="fill:#fff"/>
                <path data-name="패스 2" d="M20.778 18.944a9.506 9.506 0 0 1-9.709-9.468 9.561 9.561 0 1 1 19.114.449 9.565 9.565 0 0 1-9.4 9.018" transform="translate(-3.598)" style="fill:#fff"/>
                <path data-name="패스 3" d="M108.087 23.644H73.182c-9.043 0-14.551 4.191-14.551 12.846V77.6h15.444V38.542h8.855V77.6h15.407V38.542h8.863V77.6h15.443V36.49c0-8.655-5.511-12.846-14.552-12.846m101.552 39.335V38.438h36.38V23.651h-38.085c-9.336 0-14.26 4.963-14.26 12.741v28.684c0 7.075 4.1 12.525 14.524 12.525h38.036V62.979zM169.47 48.8v14.092h-22.879V38.5h22.879v10.252c7.972.005 16.662-3.234 16.662-12.167 0-8.749-6.736-12.782-17.483-12.94h-37.743V77.6h38.059c10.774 0 20.4-3.939 20.4-14.371 0-10.307-8.488-14.427-19.894-14.427" transform="translate(-19.06 -7.686)" style="fill:#fff"/>
                <g data-name="그룹 6018">
                    <path data-name="패스 11885" d="m26.829 13.269 7.436 19.539H19.393zM21.726 0 0 53.95h11.3l4.812-12.613h21.434l4.812 12.613h11.3L31.933 0z" style="fill:#8e84ff" transform="translate(239.279 16.05)"/>
                    <path data-name="패스 11886" d="M222.592 53.95V0h19.465A30.465 30.465 0 0 1 253.5 2.078a26.809 26.809 0 0 1 8.9 5.722 26.062 26.062 0 0 1 5.8 8.566 26.991 26.991 0 0 1 2.078 10.608 27.176 27.176 0 0 1-2.078 10.681 25.649 25.649 0 0 1-5.8 8.53 27.107 27.107 0 0 1-8.894 5.687 30.471 30.471 0 0 1-11.446 2.078zm19.538-8.53a16.945 16.945 0 0 0 6.926-1.385 15.769 15.769 0 0 0 5.359-3.828 16.981 16.981 0 0 0 3.426-5.832 21.973 21.973 0 0 0 1.2-7.4 22.2 22.2 0 0 0-1.2-7.473 17 17 0 0 0-3.426-5.832 15.388 15.388 0 0 0-5.359-3.791 17.356 17.356 0 0 0-6.926-1.349h-8.749v36.89z" transform="translate(74.906 16.05)" style="fill:#8e84ff"/>
                </g>
            </g>
        </g>
    </g>
</svg>
