<svg xmlns="http://www.w3.org/2000/svg" width="159" height="106" viewBox="0 0 159 106">
    <defs>
        <clipPath id="43f4y7k0wa">
            <path data-name="사각형 3" style="fill:#fff" d="M0 0h159v106H0z"/>
        </clipPath>
    </defs>
    <path data-name="사각형 2" style="fill:transparent" d="M0 0h152v50H0z"/>
    <g data-name="그룹 2">
        <g data-name="그룹 1" style="clip-path:url(#43f4y7k0wa)">
            <path data-name="패스 1" d="M17.668 53.254V67.8c0 .614 0 .627-.619.656-.6.028-1.205.047-1.807.03-2.644-.077-5.29.069-7.934-.054-.317-.015-.457-.072-.526-.463a8.649 8.649 0 0 1 .03-1.592V42.736c0-.427-.129-.532-.526-.529-1.94.017-3.88 0-5.82.016-.367 0-.467-.1-.463-.477Q.031 39 0 36.253c0-.378.117-.51.469-.507.985.006 1.969 0 2.954 0 3.7 0 7.408-.011 11.111.012a2.929 2.929 0 0 1 2.807 1.491 3.082 3.082 0 0 1 .328 1.51v14.5" transform="translate(0 -18.52)" style="fill:#fff"/>
            <path data-name="패스 2" d="M17.848 13.524a6.711 6.711 0 0 1-6.779-6.759 6.675 6.675 0 1 1 6.779 6.759" transform="translate(-5.853)" style="fill:#fff"/>
            <path data-name="패스 3" d="M93.163 23.644H68.791c-6.314 0-10.16 2.992-10.16 9.17v29.349h10.783V34.279H75.6v27.884h10.755V34.279h6.186v27.884h10.783V32.814c0-6.178-3.848-9.17-10.161-9.17m70.909 28.08V34.2h25.4V23.649h-26.59c-6.519 0-9.957 3.543-9.957 9.1v20.472c0 5.051 2.865 8.941 10.141 8.941h26.558V51.724zM136.022 41.6v10.062h-15.975V34.248h15.975v7.32c5.566 0 11.634-2.308 11.634-8.686 0-6.246-4.7-9.125-12.207-9.238h-26.353v38.519h26.574c7.523 0 14.243-2.812 14.243-10.259 0-7.358-5.927-10.3-13.891-10.3" transform="translate(-31.001 -12.251)" style="fill:#fff"/>
            <g data-name="그룹 6018">
                <path data-name="패스 11885" d="m22.687 11.472 6.288 16.893H16.4zM18.372 0 0 46.644h9.556l4.069-10.9H31.75l4.069 10.9h9.556L27 0z" style="fill:#8e84ff" transform="translate(39.397 59.635)"/>
                <path data-name="패스 11886" d="M222.592 46.644V0h16.46a25.263 25.263 0 0 1 9.679 1.8 22.269 22.269 0 0 1 12.423 12.354 23.792 23.792 0 0 1 1.757 9.171 23.956 23.956 0 0 1-1.757 9.234 22.2 22.2 0 0 1-4.9 7.375 22.87 22.87 0 0 1-7.521 4.917 25.268 25.268 0 0 1-9.679 1.8zm16.522-7.375a14.059 14.059 0 0 0 5.857-1.2 13.346 13.346 0 0 0 4.531-3.309 14.756 14.756 0 0 0 2.9-5.042 19.384 19.384 0 0 0 1.018-6.4 19.588 19.588 0 0 0-1.018-6.461 14.768 14.768 0 0 0-2.9-5.043 13.02 13.02 0 0 0-4.531-3.278 14.4 14.4 0 0 0-5.857-1.166h-7.4v31.899z" transform="translate(-133.963 59.635)" style="fill:#8e84ff"/>
            </g>
        </g>
    </g>
</svg>
