<svg xmlns="http://www.w3.org/2000/svg" width="34" height="34" viewBox="0 0 34 34">
    <g data-name="그룹 119" style="isolation:isolate">
        <path data-name="사각형 5372" style="fill:transparent" d="M0 0h34v34H0z"/>
        <path data-name="패스 187" d="M23.6 28.227H3.682A3.687 3.687 0 0 1 0 24.544V3.682A3.687 3.687 0 0 1 3.682 0H23.6a3.687 3.687 0 0 1 3.682 3.682v20.862a3.687 3.687 0 0 1-3.682 3.683M3.682 2.009a1.676 1.676 0 0 0-1.673 1.673v20.862a1.675 1.675 0 0 0 1.674 1.674H23.6a1.675 1.675 0 0 0 1.674-1.674V3.682A1.676 1.676 0 0 0 23.6 2.009z" transform="translate(3.358 2.886)" style="fill:#4664e6"/>
        <path data-name="패스 188" d="M22.5 13.083a1 1 0 1 1 0-2.007h4.225a1 1 0 1 1 0 2.007z" transform="translate(-3.747 -.774)" style="opacity:.6;fill:#4664e6"/>
        <path data-name="패스 189" d="M12.958 21.589a1 1 0 0 1 0-2.009h10.614a1 1 0 0 1 0 2.009z" transform="translate(-.592 -3.584)" style="opacity:.6;fill:#4664e6"/>
        <path data-name="패스 190" d="M12.958 30.091a1 1 0 0 1 0-2.009h6.691a1 1 0 1 1 0 2.009z" transform="translate(-.592 -6.394)" style="opacity:.6;fill:#4664e6"/>
        <path data-name="패스 191" d="M15.574 11.265A1.875 1.875 0 1 1 13.7 9.39a1.875 1.875 0 0 1 1.875 1.875" transform="translate(-.55 -.217)" style="opacity:.6;fill:#4664e6"/>
    </g>
</svg>
