<svg xmlns="http://www.w3.org/2000/svg" width="301" height="277" viewBox="0 0 301 277">
    <defs>
        <clipPath id="7nd0qpss8a">
            <path data-name="패스 170" d="M20.58 15.67a1.134 1.134 0 1 0 1.6 1.6 7.728 7.728 0 0 1 13.19 5.464 1.132 1.132 0 1 0 2.265 0A9.994 9.994 0 0 0 20.58 15.67m3.757-10.093a3.311 3.311 0 1 1 3.31 3.311 3.315 3.315 0 0 1-3.31-3.311M27.647 0a5.578 5.578 0 1 0 5.578 5.578A5.577 5.577 0 0 0 27.647 0z" transform="translate(-20.249 .001)" style="fill:#a5d177"/>
        </clipPath>
        <clipPath id="x9kd9ln99b">
            <path data-name="사각형 173" style="fill:#8dc552" d="M0 0h32.681v23.87H0z"/>
        </clipPath>
        <clipPath id="2deee0vioc">
            <path data-name="사각형 179" style="fill:#acd481" d="M0 0h25.537v32.736H0z"/>
        </clipPath>
        <clipPath id="qa2qk7nagd">
            <path data-name="패스 193" d="M24.509 12.579v1.178a1.023 1.023 0 0 1 1.017 1.021v6.394a1.021 1.021 0 0 1-1.017 1.019h-3.951l-1.144 1.538-1.14-1.539h-3.95a1.021 1.021 0 0 1-1.024-1.019v-6.394a1.02 1.02 0 0 1 1.019-1.019h10.186V11.4H14.323a3.372 3.372 0 0 0-3.374 3.376v6.394a3.374 3.374 0 0 0 3.374 3.375h2.767l2.325 3.129 2.326-3.129h2.769a3.374 3.374 0 0 0 3.374-3.375v-6.393a3.374 3.374 0 0 0-3.375-3.377z" transform="translate(-10.949 -11.401)" style="fill:#8dc552"/>
        </clipPath>
    </defs>
    <g style="isolation:isolate">
        <text transform="translate(50 25)" style="fill:#1b1b1b;font-size:18px;font-family:Pretendard-Medium,Pretendard;font-weight:500;letter-spacing:-.02em"><tspan x="0" y="0">인구통계</tspan></text>
        <text transform="translate(50 146)" style="fill:#1b1b1b;font-size:18px;font-family:Pretendard-Medium,Pretendard;font-weight:500;letter-spacing:-.02em"><tspan x="0" y="0">거래내역</tspan></text>
        <text transform="translate(50 86)" style="fill:#1b1b1b;font-size:18px;font-family:Pretendard-Medium,Pretendard;font-weight:500;letter-spacing:-.02em"><tspan x="0" y="0">고객행동</tspan></text>
        <text transform="translate(50 206)" style="fill:#1b1b1b;font-size:18px;font-family:Pretendard-Medium,Pretendard;font-weight:500;letter-spacing:-.02em"><tspan x="0" y="0">캠페인지표</tspan></text>
        <text transform="translate(50 266)" style="fill:#1b1b1b;font-size:18px;font-family:Pretendard-Medium,Pretendard;font-weight:500;letter-spacing:-.02em"><tspan x="0" y="0">고객서비스</tspan></text>
        <text transform="translate(243 26)" style="fill:#1b1b1b;font-size:18px;font-family:Pretendard-Medium,Pretendard;font-weight:500;letter-spacing:-.02em"><tspan x="-30.573" y="0">채널연계</tspan></text>
        <text data-name="고객 프로필 통합" transform="translate(243 186)" style="fill:#1b1b1b;font-size:18px;font-family:Pretendard-Medium,Pretendard;font-weight:500;letter-spacing:-.02em"><tspan x="-57.403" y="0">고객 프로필 통합</tspan></text>
        <text data-name="고객데이터 분석" transform="translate(243 106)" style="fill:#1b1b1b;font-size:18px;font-family:Pretendard-Medium,Pretendard;font-weight:500;letter-spacing:-.02em"><tspan x="-55.386" y="0">고객데이터 분석</tspan></text>
        <text data-name="데이터 수집" transform="translate(243 266)" style="fill:#1b1b1b;font-size:18px;font-family:Pretendard-Medium,Pretendard;font-weight:500;letter-spacing:-.02em"><tspan x="-40.189" y="0">데이터 수집</tspan></text>
        <path data-name="사각형 5369" transform="translate(232 127)" style="fill:transparent" d="M0 0h22v22H0z"/>
        <path data-name="패스 138" d="M8.975 0 0 8.975h4.38v12.962h9.19V8.975h4.38z" transform="translate(234 127)" style="fill:#4664e6"/>
        <g data-name="sec2_arr">
            <path data-name="사각형 5369" transform="translate(232 207)" style="fill:transparent" d="M0 0h22v22H0z"/>
            <path data-name="패스 138" d="M8.975 0 0 8.975h4.38v12.962h9.19V8.975h4.38z" transform="translate(234 207)" style="fill:#4664e6"/>
        </g>
        <g data-name="sec2_arr">
            <path data-name="사각형 5369" transform="translate(232 47)" style="fill:transparent" d="M0 0h22v22H0z"/>
            <path data-name="패스 138" d="M8.975 0 0 8.975h4.38v12.962h9.19V8.975h4.38z" transform="translate(234 47)" style="fill:#4664e6"/>
        </g>
        <g data-name="그룹 107" style="isolation:isolate">
            <path data-name="사각형 5370" style="fill:transparent" d="M0 0h34v34H0z"/>
            <g data-name="그룹 104">
                <g data-name="그룹 103" style="clip-path:url(#7nd0qpss8a)" transform="translate(15.951 5.065)">
                    <path data-name="사각형 172" transform="translate(-.11)" style="opacity:.6;fill:#4664e6" d="M0 0h17.5v23.871H0z"/>
                </g>
            </g>
            <g data-name="그룹 106">
                <g data-name="그룹 105" style="clip-path:url(#x9kd9ln99b)" transform="translate(.659 5.066)">
                    <path data-name="패스 171" d="M18.852 28a1.133 1.133 0 0 1-1.133-1.133 7.727 7.727 0 0 0-15.454 0 1.133 1.133 0 0 1-2.265 0 9.992 9.992 0 0 1 19.985 0A1.133 1.133 0 0 1 18.852 28" transform="translate(0 -4.132)" style="fill:#4664e6"/>
                    <path data-name="패스 172" d="M11.423 11.156A5.577 5.577 0 1 1 17 5.579a5.583 5.583 0 0 1-5.577 5.577m0-8.888a3.311 3.311 0 1 0 3.311 3.311 3.315 3.315 0 0 0-3.311-3.311" transform="translate(-1.431 -.001)" style="fill:#4664e6"/>
                </g>
            </g>
        </g>
        <path data-name="사각형 5371" style="fill:transparent" d="M0 0h34v34H0z" transform="translate(0 63)"/>
        <g data-name="그룹 7033">
            <path data-name="패스 173" d="M17.764 21.276a1.233 1.233 0 0 1-1.234-1.234V13.6a1.234 1.234 0 0 1 2.47 0v6.437a1.233 1.233 0 0 1-1.234 1.234" transform="translate(-.844 63.589)" style="fill:#4664e6"/>
            <path data-name="패스 178" d="M16.559 14.143a1.226 1.226 0 0 1-.616-.165l-5.571-3.215a1.234 1.234 0 1 1 1.234-2.137l5.571 3.215a1.233 1.233 0 0 1-.618 2.3" transform="translate(.359 64.284)" style="fill:#4664e6"/>
            <path data-name="패스 179" d="M17.765 14.143a1.233 1.233 0 0 1-.618-2.3l5.57-3.215a1.234 1.234 0 1 1 1.234 2.137l-5.57 3.215a1.226 1.226 0 0 1-.616.165" transform="translate(-.844 64.284)" style="fill:#4664e6"/>
        </g>
        <g data-name="그룹 7034" transform="translate(3.092 63.787)">
            <circle data-name="타원 714" cx="3" cy="3" r="3" transform="translate(-1.092 2.213)" style="fill:#8698e6"/>
            <circle data-name="타원 715" cx="3" cy="3" r="3" transform="translate(22.908 2.213)" style="fill:#8698e6"/>
            <circle data-name="타원 716" cx="3" cy="3" r="3" transform="translate(10.908 24.213)" style="fill:#8698e6"/>
        </g>
        <g>
            <g data-name="그룹 119" style="isolation:isolate">
                <path data-name="사각형 5372" transform="translate(0 121)" style="fill:transparent" d="M0 0h34v34H0z"/>
                <path data-name="패스 187" d="M23.6 28.227H3.682A3.687 3.687 0 0 1 0 24.544V3.682A3.687 3.687 0 0 1 3.682 0H23.6a3.687 3.687 0 0 1 3.682 3.682v20.862a3.687 3.687 0 0 1-3.682 3.683M3.682 2.009a1.676 1.676 0 0 0-1.673 1.673v20.862a1.675 1.675 0 0 0 1.674 1.674H23.6a1.675 1.675 0 0 0 1.674-1.674V3.682A1.676 1.676 0 0 0 23.6 2.009z" transform="translate(3.358 123.886)" style="fill:#4664e6"/>
                <path data-name="패스 188" d="M22.5 13.083a1 1 0 1 1 0-2.007h4.225a1 1 0 1 1 0 2.007z" transform="translate(-3.747 120.226)" style="opacity:.6;fill:#4664e6"/>
                <path data-name="패스 189" d="M12.958 21.589a1 1 0 0 1 0-2.009h10.614a1 1 0 0 1 0 2.009z" transform="translate(-.592 117.416)" style="opacity:.6;fill:#4664e6"/>
                <path data-name="패스 190" d="M12.958 30.091a1 1 0 0 1 0-2.009h6.691a1 1 0 1 1 0 2.009z" transform="translate(-.592 114.606)" style="opacity:.6;fill:#4664e6"/>
                <path data-name="패스 191" d="M15.574 11.265A1.875 1.875 0 1 1 13.7 9.39a1.875 1.875 0 0 1 1.875 1.875" transform="translate(-.55 120.783)" style="opacity:.6;fill:#4664e6"/>
            </g>
        </g>
        <g>
            <g data-name="그룹 117" style="isolation:isolate">
                <path data-name="사각형 5373" transform="translate(0 181)" style="fill:transparent" d="M0 0h34v34H0z"/>
                <path data-name="패스 183" d="M34.638 14.4h3.8v9h-3.8zm-2.121 11.121h8.038V12.283h-8.038z" transform="translate(-7.653 183.509)" style="opacity:.6;fill:#4664e6"/>
                <path data-name="패스 184" d="M23.234 19.8zM18.38 2.121h3.792V19.8H18.38zM16.257 0v21.919H24.3V0z" transform="translate(-2.887 187.11)" style="fill:#4664e6"/>
                <path data-name="패스 185" d="M2.121 8.155h3.8v13.414h-3.8zM0 23.689h8.038V6.034H0z" transform="translate(1.879 185.341)" style="opacity:.6;fill:#4664e6"/>
            </g>
        </g>
        <g>
            <g data-name="그룹 124" style="isolation:isolate">
                <path data-name="사각형 5374" transform="translate(0 243)" style="fill:transparent" d="M0 0h34v34H0z"/>
                <g data-name="그룹 120" style="clip-path:url(#2deee0vioc)" transform="translate(4.305 243.38)">
                    <path data-name="패스 192" d="M17.471 32.736H5.32A5.327 5.327 0 0 1 0 27.416V5.32A5.327 5.327 0 0 1 5.32 0h12.151a5.327 5.327 0 0 1 5.321 5.32v4.7h-2.356v-4.7a2.967 2.967 0 0 0-2.964-2.963H5.32A2.967 2.967 0 0 0 2.357 5.32v22.1a2.967 2.967 0 0 0 2.963 2.959h12.151a2.967 2.967 0 0 0 2.964-2.963v-6.49h2.357v6.49a5.327 5.327 0 0 1-5.321 5.32" style="opacity:.6;fill:#4664e6"/>
                </g>
                <g data-name="그룹 122" transform="translate(12.908 252.338)" style="clip-path:url(#qa2qk7nagd)">
                    <path data-name="사각형 180" style="fill:#4664e6" d="M0 0h16.934v16.275H0z"/>
                </g>
            </g>
        </g>
    </g>
</svg>
