<svg xmlns="http://www.w3.org/2000/svg" width="34" height="34" viewBox="0 0 34 34">
    <defs>
        <clipPath id="c9w9oakzha">
            <path data-name="사각형 179" style="fill:#acd481" d="M0 0h25.537v32.736H0z"/>
        </clipPath>
        <clipPath id="ltrsj8nwab">
            <path data-name="패스 193" d="M24.509 12.579v1.178a1.023 1.023 0 0 1 1.017 1.021v6.394a1.021 1.021 0 0 1-1.017 1.019h-3.951l-1.144 1.538-1.14-1.539h-3.95a1.021 1.021 0 0 1-1.024-1.019v-6.394a1.02 1.02 0 0 1 1.019-1.019h10.186V11.4H14.323a3.372 3.372 0 0 0-3.374 3.376v6.394a3.374 3.374 0 0 0 3.374 3.375h2.767l2.325 3.129 2.326-3.129h2.769a3.374 3.374 0 0 0 3.374-3.375v-6.393a3.374 3.374 0 0 0-3.375-3.377z" transform="translate(-10.949 -11.401)" style="fill:#8dc552"/>
        </clipPath>
    </defs>
    <g data-name="그룹 124" style="isolation:isolate">
        <path data-name="사각형 5374" style="fill:transparent" d="M0 0h34v34H0z"/>
        <g data-name="그룹 120" style="clip-path:url(#c9w9oakzha)" transform="translate(4.305 .38)">
            <path data-name="패스 192" d="M17.471 32.736H5.32A5.327 5.327 0 0 1 0 27.416V5.32A5.327 5.327 0 0 1 5.32 0h12.151a5.327 5.327 0 0 1 5.321 5.32v4.7h-2.356v-4.7a2.967 2.967 0 0 0-2.964-2.963H5.32A2.967 2.967 0 0 0 2.357 5.32v22.1a2.967 2.967 0 0 0 2.963 2.959h12.151a2.967 2.967 0 0 0 2.964-2.963v-6.49h2.357v6.49a5.327 5.327 0 0 1-5.321 5.32" style="opacity:.6;fill:#4664e6"/>
        </g>
        <g data-name="그룹 122" transform="translate(12.908 9.338)" style="clip-path:url(#ltrsj8nwab)">
            <path data-name="사각형 180" style="fill:#4664e6" d="M0 0h16.934v16.275H0z"/>
        </g>
    </g>
</svg>
