<svg xmlns="http://www.w3.org/2000/svg" width="194" height="142" viewBox="0 0 194 142">
    <defs>
        <clipPath id="t3kwgfwy0a">
            <path data-name="패스 170" d="M20.463 10.139a.734.734 0 0 0 1.037 1.037 5 5 0 0 1 8.535 3.536.733.733 0 1 0 1.465 0 6.467 6.467 0 0 0-11.038-4.573m2.431-6.531a2.142 2.142 0 1 1 2.143 2.142 2.145 2.145 0 0 1-2.142-2.142M25.036 0a3.609 3.609 0 1 0 3.61 3.609A3.608 3.608 0 0 0 25.036 0z" transform="translate(-20.249 .001)" style="fill:#a5d177"/>
        </clipPath>
        <clipPath id="59s1qsflwb">
            <path data-name="사각형 173" style="fill:#8dc552" d="M0 0h21.147v15.445H0z"/>
        </clipPath>
        <clipPath id="76ceeclymc">
            <path data-name="사각형 179" style="fill:#acd481" d="M0 0h16.524v21.182H0z"/>
        </clipPath>
        <clipPath id="d2gbbzn3sd">
            <path data-name="패스 193" d="M19.723 12.163v.762a.662.662 0 0 1 .658.66v4.138a.661.661 0 0 1-.658.659h-2.556l-.74.995-.738-.994h-2.557a.661.661 0 0 1-.659-.659v-4.139a.66.66 0 0 1 .659-.659h6.591V11.4h-6.591a2.182 2.182 0 0 0-2.183 2.184v4.138a2.183 2.183 0 0 0 2.183 2.184h1.79l1.5 2.025 1.5-2.025h1.792a2.183 2.183 0 0 0 2.183-2.184v-4.137a2.183 2.183 0 0 0-2.174-2.185z" transform="translate(-10.949 -11.401)" style="fill:#8dc552"/>
        </clipPath>
    </defs>
    <g style="isolation:isolate">
        <text transform="translate(28 15)" style="fill:#1b1b1b;font-size:12px;font-family:Pretendard-Medium,Pretendard;font-weight:500;letter-spacing:-.02em"><tspan x="0" y="0">인구통계</tspan></text>
        <text transform="translate(28 75)" style="fill:#1b1b1b;font-size:12px;font-family:Pretendard-Medium,Pretendard;font-weight:500;letter-spacing:-.02em"><tspan x="0" y="0">거래내역</tspan></text>
        <text transform="translate(28 45)" style="fill:#1b1b1b;font-size:12px;font-family:Pretendard-Medium,Pretendard;font-weight:500;letter-spacing:-.02em"><tspan x="0" y="0">고객행동</tspan></text>
        <text transform="translate(28 105)" style="fill:#1b1b1b;font-size:12px;font-family:Pretendard-Medium,Pretendard;font-weight:500;letter-spacing:-.02em"><tspan x="0" y="0">캠페인지표</tspan></text>
        <text transform="translate(28 135)" style="fill:#1b1b1b;font-size:12px;font-family:Pretendard-Medium,Pretendard;font-weight:500;letter-spacing:-.02em"><tspan x="0" y="0">고객서비스</tspan></text>
        <text transform="translate(155 15)" style="fill:#1b1b1b;font-size:12px;font-family:Pretendard-Medium,Pretendard;font-weight:500;letter-spacing:-.02em"><tspan x="-20.382" y="0">채널연계</tspan></text>
        <text data-name="고객 프로필 통합" transform="translate(155 95.001)" style="fill:#1b1b1b;font-size:12px;font-family:Pretendard-Medium,Pretendard;font-weight:500;letter-spacing:-.02em"><tspan x="-38.269" y="0">고객 프로필 통합</tspan></text>
        <text data-name="고객데이터 분석" transform="translate(155 55)" style="fill:#1b1b1b;font-size:12px;font-family:Pretendard-Medium,Pretendard;font-weight:500;letter-spacing:-.02em"><tspan x="-36.924" y="0">고객데이터 분석</tspan></text>
        <text data-name="데이터 수집" transform="translate(155 135)" style="fill:#1b1b1b;font-size:12px;font-family:Pretendard-Medium,Pretendard;font-weight:500;letter-spacing:-.02em"><tspan x="-26.793" y="0">데이터 수집</tspan></text>
        <path data-name="사각형 5369" style="fill:transparent" d="M0 0h16v16H0z" transform="translate(147 63)"/>
        <path data-name="패스 138" d="M6.427 0 0 6.427h3.136v9.282h6.581V6.427h3.136z" transform="translate(148.432 63.247)" style="fill:#4664e6"/>
        <g data-name="m_sec2_arr">
            <path data-name="사각형 5369" style="fill:transparent" d="M0 0h16v16H0z" transform="translate(147 23)"/>
            <path data-name="패스 138" d="M6.427 0 0 6.427h3.136v9.282h6.581V6.427h3.136z" transform="translate(148.432 23.247)" style="fill:#4664e6"/>
        </g>
        <g data-name="m_sec2_arr">
            <path data-name="사각형 5369" style="fill:transparent" d="M0 0h16v16H0z" transform="translate(147 103)"/>
            <path data-name="패스 138" d="M6.427 0 0 6.427h3.136v9.282h6.581V6.427h3.136z" transform="translate(148.432 103.247)" style="fill:#4664e6"/>
        </g>
        <g data-name="그룹 107" style="isolation:isolate">
            <path data-name="사각형 5370" style="fill:transparent" d="M0 0h22v22H0z"/>
            <g data-name="그룹 104">
                <g data-name="그룹 103" style="clip-path:url(#t3kwgfwy0a)" transform="translate(10.321 3.277)">
                    <path data-name="사각형 172" transform="translate(-.071)" style="opacity:.6;fill:#4664e6" d="M0 0h11.324v15.446H0z"/>
                </g>
            </g>
            <g data-name="그룹 106">
                <g data-name="그룹 105" style="clip-path:url(#59s1qsflwb)" transform="translate(.427 3.278)">
                    <path data-name="패스 171" d="M12.2 24.076a.733.733 0 0 1-.733-.733 5 5 0 0 0-10 0 .733.733 0 0 1-1.466 0 6.466 6.466 0 0 1 12.931 0 .733.733 0 0 1-.733.733" transform="translate(0 -8.63)" style="fill:#4664e6"/>
                    <path data-name="패스 172" d="M9.455 7.219a3.609 3.609 0 1 1 3.609-3.609 3.613 3.613 0 0 1-3.609 3.609m0-5.751A2.143 2.143 0 1 0 11.6 3.611a2.145 2.145 0 0 0-2.145-2.143" transform="translate(-2.989 -.001)" style="fill:#4664e6"/>
                </g>
            </g>
        </g>
        <path data-name="사각형 5371" style="fill:transparent" d="M0 0h22v22H0z" transform="translate(0 30)"/>
        <g data-name="그룹 7033">
            <path data-name="패스 173" d="M17.38 18.51a.85.85 0 0 1-.85-.85v-4.439a.85.85 0 1 1 1.7 0v4.438a.85.85 0 0 1-.85.85" transform="translate(-6.095 26.193)" style="fill:#4664e6"/>
            <path data-name="패스 178" d="M14.446 12.378a.846.846 0 0 1-.425-.114l-3.84-2.217a.85.85 0 1 1 .85-1.473l3.84 2.217a.85.85 0 0 1-.426 1.587" transform="translate(-3.161 27.887)" style="fill:#4664e6"/>
            <path data-name="패스 179" d="M17.382 12.378a.85.85 0 0 1-.426-1.587L20.8 8.575a.85.85 0 1 1 .85 1.473l-3.84 2.217a.846.846 0 0 1-.425.114" transform="translate(-6.095 27.887)" style="fill:#4664e6"/>
        </g>
        <g data-name="그룹 7034" transform="translate(1 31.258)">
            <circle data-name="타원 714" cx="2" cy="2" r="2" transform="translate(0 .742)" style="fill:#8698e6"/>
            <circle data-name="타원 715" cx="2" cy="2" r="2" transform="translate(17 .742)" style="fill:#8698e6"/>
            <circle data-name="타원 716" cx="2" cy="2" r="2" transform="translate(8 15.742)" style="fill:#8698e6"/>
        </g>
        <g>
            <g data-name="그룹 119" style="isolation:isolate">
                <path data-name="사각형 5372" transform="translate(0 60)" style="fill:transparent" d="M0 0h22v22H0z"/>
                <path data-name="패스 187" d="M15.273 18.264H2.383A2.385 2.385 0 0 1 0 15.882V2.383A2.385 2.385 0 0 1 2.383 0h12.89a2.385 2.385 0 0 1 2.383 2.383v13.5a2.385 2.385 0 0 1-2.383 2.383M2.383 1.3A1.084 1.084 0 0 0 1.3 2.383v13.5a1.084 1.084 0 0 0 1.083 1.083h12.89a1.084 1.084 0 0 0 1.083-1.083v-13.5A1.084 1.084 0 0 0 15.273 1.3z" transform="translate(2.173 61.868)" style="fill:#4664e6"/>
                <path data-name="패스 188" d="M22.148 12.375a.649.649 0 1 1 0-1.3h2.734a.649.649 0 0 1 0 1.3z" transform="translate(-10.012 55.59)" style="opacity:.6;fill:#4664e6"/>
                <path data-name="패스 189" d="M12.6 20.88a.65.65 0 0 1 0-1.3h6.868a.65.65 0 0 1 0 1.3z" transform="translate(-4.602 50.77)" style="opacity:.6;fill:#4664e6"/>
                <path data-name="패스 190" d="M12.6 29.382a.65.65 0 0 1 0-1.3h4.33a.65.65 0 1 1 0 1.3z" transform="translate(-4.602 45.951)" style="opacity:.6;fill:#4664e6"/>
                <path data-name="패스 191" d="M14.251 10.6a1.213 1.213 0 1 1-1.213-1.21 1.213 1.213 0 0 1 1.213 1.21" transform="translate(-4.53 56.546)" style="opacity:.6;fill:#4664e6"/>
            </g>
        </g>
        <g>
            <g data-name="그룹 117" style="isolation:isolate">
                <path data-name="사각형 5373" transform="translate(0 90)" style="fill:transparent" d="M0 0h22v22H0z"/>
                <path data-name="패스 183" d="M33.889 13.655h2.457v5.822h-2.457zm-1.372 7.194h5.2v-8.566h-5.2z" transform="translate(-16.429 87.288)" style="opacity:.6;fill:#4664e6"/>
                <path data-name="패스 184" d="M20.772 12.811zM17.631 1.373h2.454v11.438h-2.454zM16.257 0v14.183h5.2V0z" transform="translate(-7.606 93.954)" style="fill:#4664e6"/>
                <path data-name="패스 185" d="M1.372 7.407h2.457v8.68H1.372zM0 17.458h5.2V6.034H0z" transform="translate(1.216 90.679)" style="opacity:.6;fill:#4664e6"/>
            </g>
        </g>
        <g>
            <g data-name="그룹 124" style="isolation:isolate">
                <path data-name="사각형 5374" transform="translate(0 120)" style="fill:transparent" d="M0 0h22v22H0z"/>
                <g data-name="그룹 120" transform="translate(2.786 120.246)" style="clip-path:url(#76ceeclymc)">
                    <path data-name="패스 192" d="M11.305 21.182H3.443A3.447 3.447 0 0 1 0 17.739V3.443A3.447 3.447 0 0 1 3.443 0h7.862a3.447 3.447 0 0 1 3.443 3.443v3.038h-1.525V3.443a1.92 1.92 0 0 0-1.918-1.918H3.443a1.92 1.92 0 0 0-1.918 1.918v14.3a1.92 1.92 0 0 0 1.918 1.918h7.862a1.92 1.92 0 0 0 1.918-1.918v-4.2h1.525v4.2a3.447 3.447 0 0 1-3.443 3.443" style="opacity:.6;fill:#4664e6"/>
                </g>
                <g data-name="그룹 122" transform="translate(8.352 126.042)" style="clip-path:url(#d2gbbzn3sd)">
                    <path data-name="사각형 180" style="fill:#4664e6" d="M0 0h10.957v10.531H0z"/>
                </g>
            </g>
        </g>
    </g>
</svg>
