<svg xmlns="http://www.w3.org/2000/svg" width="113" height="153" viewBox="0 0 113 153">
    <g transform="translate(-901 -603)">
        <circle data-name="타원 1" cx="5.5" cy="5.5" r="5.5" transform="translate(910 721)" style="fill:#4664e6;opacity:.35"/>
        <circle data-name="타원 5" cx="6" cy="6" r="6" transform="translate(989 707)" style="fill:#8e84ff"/>
        <circle data-name="타원 11" cx="4.5" cy="4.5" r="4.5" transform="translate(950 637)" style="fill:#4664e6;opacity:.35"/>
        <ellipse data-name="타원 6" cx="9.5" cy="9" rx="9.5" ry="9" transform="translate(941 697)" style="fill:#8e84ff"/>
        <circle data-name="타원 16" cx="6" cy="6" r="6" transform="translate(920 640)" style="fill:#8e84ff"/>
        <circle data-name="타원 2" cx="11" cy="11" r="11" transform="translate(968 666)" style="fill:#8e84ff"/>
        <circle data-name="타원 12" cx="11" cy="11" r="11" transform="translate(950 734)" style="fill:#4664e6;opacity:.35"/>
        <circle data-name="타원 13" cx="7.5" cy="7.5" r="7.5" transform="translate(901 673)" style="fill:#4664e6;opacity:.35"/>
        <circle data-name="타원 14" cx="7.5" cy="7.5" r="7.5" transform="translate(999 645)" style="fill:#4664e6;opacity:.35"/>
        <circle data-name="타원 3" cx="8.5" cy="8.5" r="8.5" transform="translate(918 603)" style="fill:#4664e6;opacity:.35"/>
        <circle data-name="타원 4" cx="6.5" cy="6.5" r="6.5" transform="translate(976 611)" style="fill:#8e84ff"/>
    </g>
</svg>
