<svg width="72" height="120" viewBox="0 0 72 120" fill="none" xmlns="http://www.w3.org/2000/svg">
<ellipse cx="36" cy="75" rx="32" ry="29" fill="#F6D5A9"/>
<path d="M14.9921 86.3514C17.6358 74.2686 30.0989 72.6382 36 72V102.632C32.6009 102.632 29.5481 101.782 28.4466 101.356C27.2664 102.845 21.2713 104 19.4769 104C17.536 104 11.6874 101.455 14.9921 86.3514Z" fill="white"/>
<path d="M57.0313 86.3514C54.3847 74.2686 41.9077 72.6382 36 72V102.632C39.4029 102.632 42.459 101.782 43.5618 101.356C44.7433 102.845 49.805 104 52.5415 104C54.2507 104 60.3396 101.455 57.0313 86.3514Z" fill="white"/>
<path d="M36 72C30.2266 72.6205 17.5865 74.2527 15 86" stroke="black"/>
<path d="M26.5 100.5C27.325 101.222 30.96 103 36 103" stroke="black"/>
<path d="M45.5 100.5C44.7667 101.222 40.48 103 36 103" stroke="black"/>
<path d="M36 77V82" stroke="black"/>
<path d="M36 82C33.1716 82 30.8788 84.006 30.8788 86.4805C30.8788 89.094 25.3636 92.081 23 87.9739" stroke="black"/>
<path d="M36 82C38.8284 82 41.1212 84.006 41.1212 86.4805C41.1212 89.094 46.6364 92.081 49 87.9739" stroke="black"/>
<path d="M36 72C41.8989 72.6205 54.3573 74.2527 57 86" stroke="black"/>
<path d="M19.4769 104C21.2713 104 27.2664 102.845 28.4467 101.356" stroke="black"/>
<path d="M52.9697 104C51.1753 104 45.1802 102.845 44 101.356" stroke="black"/>
<ellipse cx="36" cy="74" rx="7" ry="3" fill="black"/>
<circle cx="23" cy="70" r="3" fill="black"/>
<circle cx="49" cy="70" r="3" fill="black"/>
<path d="M7 44H21.3431C24.9068 44 26.6914 48.3086 24.1716 50.8284L9.82843 65.1716C7.30857 67.6914 3 65.9068 3 62.3431V48C3 45.7909 4.79086 44 7 44Z" fill="#482712"/>
<path d="M65 44H50.6569C47.0932 44 45.3086 48.3086 47.8284 50.8284L62.1716 65.1716C64.6914 67.6914 69 65.9068 69 62.3431V48C69 45.7909 67.2091 44 65 44Z" fill="#482712"/>
</svg>
