<svg width="90" height="47" viewBox="0 0 90 47" fill="none" xmlns="http://www.w3.org/2000/svg">
<path d="M61.6708 12.5981C61.6708 11.9193 62.2106 11.369 62.8765 11.369H67.7943C68.4602 11.369 69 10.8187 69 10.1399V7.59138C69 6.91258 68.4602 6.3623 67.7943 6.3623H62.8765C62.2106 6.3623 61.6708 5.81202 61.6708 5.13321V1.22908C61.6708 0.550278 61.1309 0 60.465 0H55.3921C54.7262 0 54.1864 0.550278 54.1864 1.22908V5.13321C54.1864 5.81202 53.6466 6.3623 52.9807 6.3623H52.2057C51.5398 6.3623 51 6.91257 51 7.59138V10.1399C51 10.8187 51.5398 11.369 52.2057 11.369H52.9807C53.6466 11.369 54.1864 11.9193 54.1864 12.5981V22.7296C54.1864 29.0182 56.3772 32 62.7129 32C63.6187 32 65.001 31.7054 66.0919 31.5078C66.7102 31.3958 67.1914 30.8511 67.1914 30.211V26.4138C67.1914 25.735 66.6516 25.1847 65.9856 25.1847H65.0424C62.4118 25.1847 61.6708 24.5387 61.6708 21.739V12.5981Z" fill="white"/>
<path d="M0 34.5648V10.3833C0 8.92594 -0.0565253 7.35938 0.797022 6.17813C0.991842 5.90851 1.20881 5.67506 1.43577 5.47428C2.61172 4.434 4.30918 4.43404 5.8808 4.43408H5.90993H12.3887C14.6881 4.43408 17.0262 4.59324 19.137 5.50532C26.2711 8.58792 27.7191 14.9549 27.4633 18.1038C27.4633 26.8949 21.1514 30.8208 17.1741 31.9637C16.4742 32.1648 15.7449 32.2158 15.0166 32.2158H13.5151C12.6098 32.2158 11.0342 32.0699 11.3583 31.2246C11.435 31.0247 11.6463 30.8586 11.8727 30.7399C12.0427 30.6508 12.2362 30.6232 12.4281 30.6232C13.3827 30.6232 14.1306 29.8155 14.1289 28.8609C14.1268 27.6559 14.2202 26.7819 14.3552 26.162C14.5702 25.1752 15.3456 24.3186 16.1473 23.7043C16.2814 23.6016 16.4125 23.5135 16.5398 23.4384C17.4952 22.8747 18.812 23.0224 19.6429 22.2876C20.7818 21.2805 21.254 19.7378 21.3506 18.9001C21.4069 16.6182 19.7465 15.2942 18.4218 14.6964C17.8613 14.4435 16.9563 14.3792 16.4382 14.048C15.4742 13.4317 15.2475 12.3043 14.1457 11.9958C12.8219 11.6251 11.0188 11.6927 9.99856 11.8219C6.64533 12.0696 6.27275 19.0033 6.50561 22.4391C6.50561 23.9081 8.92536 24.0231 9.89575 22.9202C10.1877 22.5884 10.274 22.2109 10.2605 21.9525V16.9586C10.2605 16.545 10.2834 15.792 10.6967 15.8068C11.2748 15.8274 11.2211 16.6335 11.2211 17.212V21.9525C11.2211 24.7874 7.85913 27.4724 7.85913 30.3073V39.6037C7.85913 46.6756 0 41.6367 0 34.5648Z" fill="white"/>
<circle cx="14.1886" cy="16.8492" r="0.886794" fill="white"/>
<path d="M73.7713 19.9956C71.3959 24.2225 74.3023 28.9358 81.0558 27.7872C80.6289 28.0807 79.5628 29.7037 80.6413 31.4628C73.7713 33.7374 67.3522 27.2464 68.395 19.9956C70.5487 11.6309 77.7329 11.3751 81.0558 12.2928C87.1151 5.67072 89.1343 13.5585 89.3865 18.3301C89.5974 20.5458 89.7964 26.125 88.9054 30.7162H85.2477C84.2696 30.7162 84.0204 30.2311 84.0181 29.9885C84.0181 29.1156 83.2806 27.5956 82.9119 26.9447C86.6846 24.3259 84.7555 20.455 83.3194 18.847C82.9934 14.4823 81.3982 16.4541 80.6413 17.9855C78.918 17.3423 77.5168 17.9472 77.0316 18.3301C74.8426 14.7465 73.946 17.9472 73.7713 19.9956Z" fill="#FFB800"/>
<ellipse cx="81.1419" cy="21.7262" rx="0.443397" ry="1.33019" fill="#FFB800"/>
<ellipse cx="76.7076" cy="22.17" rx="0.443397" ry="0.886794" fill="#FFB800"/>
<path fill-rule="evenodd" clip-rule="evenodd" d="M45.4258 30.4278C45.4282 30.6762 45.681 31.1728 46.6734 31.1728H50.3844C51.2883 26.4724 51.0864 20.7605 50.8724 18.4921C50.6166 13.607 48.568 5.53158 42.4205 12.3112C39.0492 11.3717 31.7603 11.6336 29.5754 20.1972C28.5173 27.6205 35.0299 34.2659 41.9999 31.9371C43.0502 31.521 45.2058 30.6365 45.4258 30.4278ZM39.7997 27.5492C42.9607 27.5492 45.5233 25.0264 45.5233 21.9143C45.5233 18.8023 42.9607 16.2794 39.7997 16.2794C36.6386 16.2794 34.0761 18.8023 34.0761 21.9143C34.0761 25.0264 36.6386 27.5492 39.7997 27.5492Z" fill="white"/>
</svg>
